<?xml version="1.0" standalone="no"?>
<!DOCTYPE svg PUBLIC "-//W3C//DTD SVG 20010904//EN"
 "http://www.w3.org/TR/2001/REC-SVG-20010904/DTD/svg10.dtd">
<svg version="1.0" xmlns="http://www.w3.org/2000/svg"
 width="566.000000pt" height="449.000000pt" viewBox="0 0 566.000000 449.000000"
 preserveAspectRatio="xMidYMid meet">

<g transform="translate(0.000000,449.000000) scale(0.100000,-0.100000)"
fill="#000000" stroke="none">
<path d="M4408 3975 c3 -19 -6 -37 -34 -72 -22 -26 -38 -52 -37 -58 1 -5 -29
-43 -67 -84 -38 -41 -67 -78 -64 -83 3 -4 11 -5 17 -1 23 14 92 10 103 -6 10
-13 15 -14 38 -2 14 8 26 18 26 23 0 11 -18 10 -25 -2 -9 -15 -25 -12 -25 4 0
20 -19 31 -33 17 -7 -7 -14 -6 -22 6 -10 14 -3 29 48 92 32 41 64 85 69 97 12
26 48 21 48 -7 0 -11 7 -22 15 -25 17 -7 130 -143 123 -149 -2 -2 -21 1 -41 7
-20 6 -40 9 -43 6 -12 -12 19 -50 51 -64 19 -7 37 -18 40 -24 4 -6 10 -8 15
-5 4 3 7 -3 6 -13 0 -11 7 -18 22 -20 12 -2 22 2 22 8 0 14 -40 49 -56 50 -14
0 -28 30 -14 30 5 0 20 -4 34 -10 39 -15 32 3 -24 59 -27 28 -50 54 -50 59 0
5 -17 25 -38 44 -20 18 -51 59 -67 91 -32 61 -45 72 -37 32z"/>
<path d="M3594 3950 c-4 -22 -12 -40 -19 -40 -6 0 -17 -17 -23 -38 -6 -20 -32
-66 -57 -102 -49 -70 -53 -80 -29 -80 8 0 13 4 10 8 -3 5 1 9 8 9 8 0 12 -6 9
-14 -3 -7 -1 -13 5 -13 9 0 24 37 26 65 1 6 27 56 59 112 53 92 57 104 44 118
-23 22 -26 19 -33 -25z"/>
<path d="M3660 3891 c0 -5 22 -37 49 -72 40 -51 47 -66 35 -72 -22 -13 -17
-39 21 -97 19 -30 35 -60 35 -67 0 -6 15 -28 34 -47 42 -45 53 -86 23 -86 -11
0 -28 6 -36 14 -9 7 -26 17 -38 20 -20 6 -23 4 -24 -21 -1 -17 -3 -21 -6 -10
-5 18 -23 24 -23 7 0 -5 -8 -7 -17 -3 -12 4 -9 -4 10 -21 15 -15 27 -31 27
-37 0 -24 20 5 21 29 l1 27 10 -27 c7 -20 17 -28 33 -28 14 0 26 -7 30 -19 3
-10 24 -36 48 -59 87 -84 121 -134 82 -118 -8 3 -15 1 -15 -5 0 -6 -4 -8 -9
-5 -18 12 -18 -20 0 -43 11 -13 20 -19 21 -15 0 5 2 14 3 19 2 6 3 14 4 20 0
5 8 0 16 -13 14 -19 29 -22 63 -13 3 1 -30 54 -38 61 -21 18 -104 129 -111
147 -5 13 -15 23 -24 23 -8 0 -15 7 -15 15 0 8 6 14 13 13 6 -2 11 2 10 8 -1
7 6 10 17 7 27 -7 27 28 0 52 -11 10 -20 23 -20 29 0 5 -16 26 -35 46 -39 40
-100 151 -79 143 17 -6 18 9 2 26 -11 10 -8 11 15 6 35 -9 35 8 -1 34 -15 11
-48 47 -72 80 -42 57 -60 73 -60 52z"/>
<path d="M794 3862 c-5 -4 -18 -28 -27 -53 -10 -26 -27 -57 -37 -70 -11 -12
-20 -26 -20 -31 0 -4 -11 -8 -25 -8 -14 0 -25 -6 -25 -13 0 -7 -9 -18 -20 -25
-11 -7 -20 -18 -20 -26 0 -8 -11 -21 -25 -30 -14 -9 -25 -23 -25 -30 0 -22 31
-28 46 -9 16 22 18 10 3 -19 -6 -11 -8 -22 -5 -25 7 -8 36 23 36 39 0 10 3 9
10 -2 5 -8 5 -21 0 -29 -4 -8 -4 -25 0 -37 5 -12 6 -25 2 -29 -4 -4 -7 -12 -7
-18 0 -7 -6 -12 -12 -12 -7 0 -26 -15 -42 -32 -17 -18 -35 -33 -42 -33 -8 0
-8 -4 1 -15 10 -12 10 -19 -2 -33 -15 -18 -23 -72 -11 -72 4 0 22 15 41 33 26
24 32 27 23 10 -6 -12 -16 -25 -21 -28 -6 -4 -7 -11 -4 -17 4 -6 10 -5 15 3 7
11 9 11 9 1 0 -7 5 -10 10 -7 21 13 8 -13 -20 -40 -16 -16 -30 -35 -30 -42 0
-7 -14 -20 -30 -28 -17 -9 -28 -20 -25 -26 4 -5 12 -7 18 -3 7 3 2 -3 -10 -14
-22 -19 -22 -20 -3 -37 10 -9 24 -14 29 -10 6 3 11 3 11 -2 -1 -11 -26 -43
-33 -43 -15 0 -46 -34 -40 -44 3 -6 3 -8 -1 -4 -4 3 -22 -3 -41 -15 -18 -12
-41 -27 -51 -34 -17 -10 -17 -13 -4 -22 19 -14 33 -14 25 -1 -3 6 -1 10 4 10
6 0 11 -5 11 -10 0 -6 10 -4 23 5 22 14 23 13 25 -13 1 -15 -3 -39 -8 -53 -11
-26 -76 -86 -117 -108 -32 -17 -29 -31 6 -26 27 3 29 1 25 -22 -3 -16 -1 -22
6 -18 6 4 11 1 9 -6 -5 -37 2 -58 16 -53 24 9 18 0 -29 -49 -40 -40 -96 -118
-96 -132 0 -17 28 0 43 25 10 17 22 30 28 30 5 0 9 8 9 18 0 9 14 26 30 37 17
11 33 27 35 37 3 9 13 22 22 29 14 12 15 10 9 -19 -5 -21 -4 -32 3 -32 6 0 11
9 11 20 0 30 14 24 27 -10 7 -19 18 -30 30 -30 17 1 17 1 0 14 -9 7 -22 27
-28 45 -11 30 -40 46 -80 44 -15 -1 -16 2 -10 87 1 13 33 57 101 137 10 12 15
25 12 30 -4 4 5 -3 20 -15 28 -26 56 -24 80 5 12 15 11 15 -18 0 -29 -15 -32
-15 -47 4 -9 10 -17 24 -17 29 0 15 -11 12 -26 -7 -12 -17 -13 -17 -8 2 2 11
0 26 -5 34 -7 11 -13 10 -37 -4 l-29 -17 30 24 c39 31 65 58 94 100 20 28 30
34 50 30 24 -5 25 -4 12 12 -10 12 -23 16 -42 12 -27 -5 -27 -5 -12 24 8 16
18 32 24 35 5 4 9 13 9 21 0 8 9 25 20 36 23 25 44 89 32 98 -5 3 -11 13 -15
22 -3 10 -18 20 -32 24 -23 6 -36 24 -16 24 14 0 119 107 135 138 17 33 9 50
-24 54 -14 2 -28 11 -32 21 -4 10 -13 15 -19 11 -7 -4 -10 0 -7 11 3 18 68 62
68 47 1 -4 12 13 25 38 13 25 21 53 18 64 -3 10 -1 16 4 13 5 -4 18 11 27 31
l18 37 16 -40 c9 -22 35 -74 59 -115 39 -69 41 -75 23 -78 -11 -2 -20 -8 -20
-14 0 -7 -4 -7 -13 1 -22 18 -26 2 -10 -37 8 -19 37 -56 64 -80 27 -25 47 -47
44 -50 -3 -3 -11 0 -17 6 -15 15 -48 16 -48 1 0 -5 -8 -9 -17 -8 -26 3 -53
-11 -53 -27 0 -9 11 -14 29 -14 36 0 101 -64 174 -171 26 -39 22 -67 -8 -55
-9 3 -22 3 -28 -1 -17 -10 -60 -13 -72 -4 -5 4 -20 8 -32 9 -18 0 -23 -5 -23
-23 0 -18 7 -25 30 -30 33 -7 73 -39 83 -67 9 -24 24 -23 32 2 8 24 21 26 29
4 3 -8 10 -13 15 -10 15 10 101 -77 104 -104 2 -21 -2 -25 -25 -24 -20 0 -28
-5 -28 -17 0 -12 -7 -16 -30 -13 -20 2 -32 -2 -39 -14 -10 -16 -10 -16 -11 2
0 15 -3 16 -15 6 -13 -11 -14 -10 -9 4 8 22 -12 21 -26 -1 -10 -17 -10 -16 -8
2 3 21 -17 24 -60 10 -25 -8 -24 -32 2 -27 9 2 16 -2 16 -8 0 -5 7 -10 15 -10
8 0 15 -5 15 -11 0 -8 5 -8 15 1 10 9 15 9 15 1 0 -17 78 -11 85 7 4 10 16 -6
35 -46 31 -66 46 -80 36 -34 -5 24 -4 24 9 -5 14 -31 35 -45 35 -24 0 25 82
-18 86 -45 2 -12 0 -14 -9 -5 -22 22 -30 11 -9 -12 23 -24 29 -47 13 -47 -5 0
-12 7 -15 17 -6 14 -8 14 -21 -3 -13 -17 -14 -17 -15 -1 0 23 -21 22 -27 -1
-3 -14 -12 -17 -34 -14 -16 2 -39 -2 -52 -11 -21 -14 -25 -13 -45 10 -12 14
-22 31 -22 39 0 8 -5 14 -11 14 -11 0 -8 -24 8 -67 6 -17 6 -17 -14 0 -18 15
-55 26 -40 11 10 -10 -12 -44 -28 -44 -8 0 -15 5 -15 10 0 6 -7 10 -15 10 -23
0 -18 -16 10 -28 36 -17 40 -15 54 15 l13 28 28 -35 c16 -19 32 -31 36 -27 4
4 14 -3 21 -15 10 -20 12 -20 13 -5 0 40 70 105 70 67 0 -6 -8 -10 -17 -8 -10
2 -19 -4 -21 -14 -2 -10 1 -18 7 -18 6 0 11 5 11 11 0 7 9 9 24 5 15 -4 26 -1
29 7 3 7 6 4 6 -7 1 -15 4 -16 15 -7 18 15 39 10 48 -11 10 -25 32 -23 25 2
-3 11 -1 20 4 20 5 0 6 12 3 28 -6 23 -5 25 8 15 8 -7 19 -9 23 -5 5 4 5 -1 2
-10 -4 -12 -1 -18 8 -18 26 0 28 23 4 44 -14 12 -31 30 -39 40 -14 18 -14 19
9 7 19 -11 23 -11 19 1 -2 7 -16 19 -30 25 -13 7 -48 46 -76 88 -54 77 -67
112 -32 80 26 -24 39 -11 15 15 -25 28 -13 35 18 10 34 -27 43 -9 10 21 -14
13 -51 57 -82 98 -92 121 -87 111 -60 111 l24 0 -25 21 c-21 17 -22 19 -3 10
26 -13 53 -14 53 -3 0 5 -15 16 -34 25 -27 12 -33 20 -29 36 3 12 1 21 -4 21
-5 0 -18 7 -29 15 -16 13 -16 14 -1 9 10 -4 17 -1 17 6 0 10 3 10 14 1 20 -17
27 -1 22 51 -3 23 -5 49 -5 56 -1 7 -5 10 -11 7 -5 -3 -7 -25 -3 -50 5 -38 3
-45 -11 -45 -17 0 -22 15 -7 24 5 4 8 14 6 24 -2 9 -4 23 -4 30 -1 6 -8 12
-16 12 -18 0 -19 12 -3 28 15 15 21 92 8 92 -6 0 -5 8 2 19 7 11 16 19 22 18
5 -1 15 18 23 43 10 35 11 50 2 67 -7 12 -16 20 -21 17 -19 -12 -5 8 43 63 28
32 58 70 67 86 9 15 19 27 23 27 4 0 15 -12 24 -27 10 -16 40 -54 68 -85 48
-56 48 -58 23 -58 -32 0 -32 -7 -1 -50 29 -39 32 -48 10 -30 -13 11 -15 8 -15
-22 0 -18 6 -42 13 -53 8 -11 22 -33 33 -49 l19 -30 -23 6 c-24 7 -30 -10 -10
-30 14 -14 12 -15 -30 -3 -29 9 -32 8 -32 -12 0 -13 -3 -17 -8 -11 -10 16 -51
12 -62 -6 -15 -24 -12 -43 6 -36 9 3 21 3 27 -1 21 -13 50 -14 59 -1 6 10 8
10 8 -1 0 -8 7 -11 20 -8 14 4 25 -3 39 -26 11 -18 33 -45 50 -61 38 -36 39
-45 6 -38 -16 3 -25 0 -25 -8 0 -9 -11 -11 -34 -7 -31 5 -34 3 -31 -15 4 -20
4 -20 -15 -3 -27 24 -25 11 2 -20 14 -16 32 -25 50 -25 16 0 31 -6 34 -14 3
-8 30 -31 60 -52 29 -20 51 -41 48 -45 -3 -5 -1 -9 5 -9 5 0 16 -3 25 -6 10
-4 16 -1 16 8 0 7 -29 33 -65 56 -36 24 -65 47 -65 52 0 5 -3 15 -6 24 -4 10
-1 16 9 16 8 0 17 5 19 11 3 9 10 9 26 0 41 -22 25 13 -33 74 -30 31 -55 61
-55 66 0 4 -14 24 -30 43 l-31 34 29 -4 c25 -4 31 -1 36 22 6 21 0 37 -22 68
-16 23 -32 54 -36 69 -6 26 -5 27 15 17 32 -18 32 -7 -1 38 -16 23 -30 44 -30
46 0 3 14 6 31 8 l31 3 -62 70 c-35 39 -76 91 -92 118 -28 44 -48 54 -48 23 0
-15 -77 -124 -121 -171 -20 -21 -25 -33 -18 -42 6 -6 8 -21 4 -33 -8 -24 10
-27 19 -4 4 9 9 15 11 12 9 -9 -7 -38 -21 -38 -7 0 -22 -20 -32 -44 -11 -24
-25 -47 -31 -50 -16 -10 -14 -26 4 -26 18 0 19 -12 3 -28 -10 -10 -24 -1 -65
40 -51 51 -69 83 -38 72 10 -4 15 0 15 11 0 12 5 15 20 10 28 -9 26 16 -3 47
-33 36 -114 177 -129 227 -13 43 -16 45 -34 33z m256 -452 c-6 -11 -15 -20
-20 -20 -6 0 -2 9 7 20 10 11 19 20 21 20 1 0 -2 -9 -8 -20z m-33 -34 c1 -1
-7 -12 -18 -26 -18 -23 -20 -24 -33 -7 -7 9 -18 17 -24 17 -5 0 -12 7 -16 15
-4 12 3 13 42 8 26 -3 48 -6 49 -7z m55 -51 c0 -5 -5 -11 -11 -13 -6 -2 -11 4
-11 13 0 9 5 15 11 13 6 -2 11 -8 11 -13z m-36 -17 c-3 -13 -6 -27 -6 -32 0
-5 -9 -1 -19 8 -16 14 -17 21 -8 32 20 22 40 17 33 -8z m24 -28 c0 -11 -4 -20
-9 -20 -5 0 -7 9 -4 20 3 11 7 20 9 20 2 0 4 -9 4 -20z m4 -159 c11 -4 15 -10
9 -14 -5 -3 -19 0 -29 8 -20 15 -11 18 20 6z m-54 -52 c0 -6 -4 -7 -10 -4 -5
3 -10 11 -10 16 0 6 5 7 10 4 6 -3 10 -11 10 -16z m81 -11 c11 -21 11 -22 -4
-9 -10 7 -17 17 -17 22 0 15 9 10 21 -13z m139 -303 l24 -26 -24 9 c-14 5 -26
17 -28 26 -5 22 0 20 28 -9z m47 -177 c-3 -8 -6 -5 -6 6 -1 11 2 17 5 13 3 -3
4 -12 1 -19z"/>
<path d="M3477 3666 c-9 -22 -5 -31 10 -28 9 2 -5 -20 -31 -50 -25 -29 -46
-58 -46 -64 0 -6 -9 -19 -20 -29 -26 -24 -25 -37 2 -33 11 2 23 -2 25 -9 4
-12 -70 -91 -145 -153 -23 -19 -42 -38 -42 -42 0 -14 22 -8 53 14 21 14 27 16
19 6 -21 -26 -4 -43 20 -21 21 18 21 18 7 -5 -8 -12 -19 -20 -26 -18 -16 6
-63 -32 -63 -50 0 -8 -4 -13 -9 -10 -11 7 -58 -30 -50 -38 10 -11 39 5 39 22
0 8 3 13 6 9 3 -3 24 5 45 19 41 25 63 25 53 -1 -4 -8 -10 -13 -14 -10 -5 3
-6 -4 -3 -15 6 -23 14 -25 31 -8 9 9 12 8 12 -5 0 -15 -43 -50 -74 -60 -5 -2
-6 -9 -2 -16 6 -9 11 -9 21 -1 9 8 15 8 20 0 3 -5 0 -10 -8 -10 -18 0 -39 -24
-30 -33 3 -4 12 -2 20 5 26 22 23 0 -5 -29 l-28 -30 26 -1 c14 0 33 7 43 16
18 16 23 42 9 42 -12 0 -8 38 6 52 7 7 12 18 12 25 0 7 5 13 10 13 15 0 12 46
-3 59 -13 10 -15 88 -3 136 3 11 29 45 59 76 46 47 56 53 64 40 9 -14 13 -13
31 9 26 31 29 49 4 27 -22 -20 -33 -22 -29 -4 1 6 -3 11 -10 10 -8 -2 -9 6 -3
26 5 18 4 33 -2 39 -7 7 -4 21 9 44 32 52 37 85 14 91 -11 3 -22 0 -24 -7z"/>
<path d="M4260 3635 c-12 -19 -26 -33 -31 -30 -9 6 -119 -102 -119 -117 0 -12
10 -10 26 7 19 19 35 19 28 1 -5 -14 22 -30 36 -21 11 7 40 65 40 80 0 6 14
24 30 40 28 27 41 75 21 75 -5 0 -19 -16 -31 -35z m-60 -99 c0 -3 -4 -8 -10
-11 -5 -3 -10 -1 -10 4 0 6 5 11 10 11 6 0 10 -2 10 -4z"/>
<path d="M4665 3607 c-5 -11 4 -30 24 -56 17 -21 31 -43 31 -49 0 -5 7 -15 15
-22 8 -6 13 -17 12 -23 -1 -6 6 -13 16 -15 26 -5 22 34 -7 65 -14 15 -23 29
-21 32 1 3 -12 24 -30 46 -28 33 -35 37 -40 22z"/>
<path d="M4284 3531 c-4 -19 -13 -31 -22 -31 -12 0 -13 3 -4 12 14 14 16 38 3
38 -9 0 -25 -54 -23 -80 1 -22 -17 -50 -33 -50 -7 0 -28 -17 -47 -39 -18 -21
-44 -44 -57 -50 -16 -9 -20 -16 -12 -24 7 -7 14 -7 24 2 12 9 16 8 20 -4 4 -8
1 -14 -5 -12 -6 1 -13 -4 -16 -12 -3 -11 2 -12 23 -7 l27 7 -22 -31 c-12 -16
-27 -30 -33 -30 -13 -1 -57 -35 -57 -44 0 -15 36 -4 48 14 7 11 17 20 23 20 8
0 8 -4 -1 -15 -12 -14 -5 -55 10 -55 18 0 41 52 35 79 -4 20 0 32 15 46 27 24
25 35 -5 35 -14 0 -25 4 -25 10 0 15 88 99 184 178 8 6 19 12 24 12 5 0 15 6
22 14 6 8 19 12 27 9 11 -5 14 -3 8 6 -4 7 -18 11 -31 8 -13 -2 -24 -1 -24 4
0 4 -8 7 -17 7 -10 0 -26 3 -36 7 -14 6 -18 1 -23 -24z"/>
<path d="M4661 3484 c-9 -10 -25 -15 -47 -12 -19 2 -34 1 -34 -3 0 -4 -18 -10
-40 -14 -49 -8 -56 -34 -7 -31 17 1 38 -2 45 -7 7 -6 18 -5 28 4 14 11 18 11
29 -4 7 -9 19 -17 26 -17 8 0 20 -9 27 -20 7 -11 19 -20 26 -20 8 0 23 -15 34
-33 21 -32 56 -61 146 -120 37 -24 50 -39 52 -59 2 -25 0 -27 -17 -18 -10 6
-19 7 -19 2 0 -5 -13 -7 -30 -4 -49 7 -34 -27 20 -43 23 -7 24 -7 10 10 -14
17 -14 17 8 6 12 -6 27 -9 32 -6 5 3 21 -2 35 -11 16 -10 25 -12 25 -5 0 6 -7
14 -15 17 -9 4 -21 16 -27 28 -10 18 -6 17 26 -7 20 -16 42 -27 48 -25 16 6
-91 107 -142 133 -25 13 -61 37 -80 54 -28 25 -32 33 -21 40 12 8 12 12 2 25
-7 9 -17 14 -21 11 -4 -2 -13 7 -20 20 -7 14 -20 25 -28 25 -12 0 -12 3 -2 15
10 12 10 18 0 30 -10 12 -10 15 1 15 8 0 -1 9 -19 20 -38 23 -34 23 -51 4z"/>
<path d="M1136 3308 c10 -59 14 -65 26 -44 8 15 8 21 0 24 -7 2 -12 12 -12 22
0 10 -4 22 -10 25 -6 4 -8 -7 -4 -27z"/>
<path d="M4182 3188 c-9 -29 -10 -44 -3 -46 6 -2 11 -11 11 -20 0 -16 -39 -81
-68 -113 -7 -8 -19 -22 -26 -33 -12 -17 -16 -15 -57 34 -24 28 -61 71 -82 93
-32 35 -37 47 -33 75 3 23 1 32 -7 29 -7 -2 -11 -22 -11 -50 1 -35 -2 -47 -13
-47 -12 0 -14 9 -9 43 4 30 4 36 -3 21 -5 -12 -15 -25 -21 -29 -9 -6 -9 -2 -1
14 8 14 8 21 1 21 -6 0 -13 -6 -16 -14 -3 -8 -11 -13 -19 -10 -7 3 -15 -2 -18
-10 -4 -9 -11 -16 -16 -16 -6 0 -8 6 -5 14 3 8 1 17 -4 20 -6 3 -13 -1 -16
-10 -4 -10 -12 -14 -22 -10 -9 4 -23 1 -30 -5 -18 -15 -19 -62 -1 -56 6 2 11
11 9 20 -1 8 2 19 8 22 7 4 10 0 8 -11 -3 -19 12 -23 43 -10 10 4 23 0 33 -9
9 -10 21 -13 28 -8 7 4 23 6 36 4 13 -1 29 2 36 8 9 8 20 3 41 -19 16 -17 25
-30 20 -30 -5 0 5 -15 22 -32 17 -18 33 -42 37 -53 3 -11 16 -25 28 -30 13 -6
23 -14 23 -20 0 -5 14 -24 30 -41 37 -38 95 -111 95 -118 0 -3 -9 -6 -19 -6
-11 0 -22 -8 -25 -18 -7 -19 -116 -58 -116 -41 0 5 -7 9 -15 9 -9 0 -12 -6 -8
-16 4 -12 14 -15 40 -11 23 4 33 2 31 -6 -1 -7 2 -22 6 -35 11 -34 0 -39 -29
-12 -14 13 -25 18 -25 12 0 -6 12 -23 27 -37 28 -25 53 -33 53 -16 0 16 57 -6
97 -37 21 -17 57 -38 81 -47 23 -10 42 -22 42 -28 0 -20 81 -117 97 -117 13 0
12 5 -7 25 -13 14 -25 37 -26 52 -2 15 -11 31 -20 36 -9 5 -41 30 -70 56 -105
90 -137 116 -143 116 -3 1 -16 6 -29 14 -19 10 -21 15 -11 27 6 8 18 14 25 14
8 0 22 9 31 20 10 11 23 20 29 20 6 0 23 -9 37 -20 37 -29 48 -25 29 12 -18
35 -32 49 -42 43 -3 -2 -21 19 -39 46 -19 27 -38 49 -43 49 -4 0 -8 5 -8 11 0
7 11 8 31 4 31 -7 48 4 49 31 0 13 -48 26 -97 26 -31 0 -32 0 -20 26 6 15 18
34 26 42 30 31 69 102 64 116 -4 11 8 14 62 14 51 0 66 3 62 13 -4 10 3 12 24
9 16 -2 29 0 29 6 0 15 -123 27 -128 13 -4 -13 -52 33 -52 50 0 24 -16 5 -28
-33z m-18 -574 c3 -8 2 -12 -4 -9 -6 3 -10 10 -10 16 0 14 7 11 14 -7z m124
-99 c-3 -3 -9 2 -12 12 -6 14 -5 15 5 6 7 -7 10 -15 7 -18z"/>
<path d="M3263 3157 c-28 -12 -30 -27 -4 -27 10 0 22 7 25 16 8 22 5 24 -21
11z"/>
<path d="M1297 3138 c-4 -11 -13 -15 -27 -11 -17 5 -21 2 -19 -12 2 -10 10
-20 18 -23 8 -3 11 0 7 6 -4 6 2 10 14 9 11 -1 20 -5 20 -9 0 -3 9 -6 19 -5
15 1 17 4 10 14 -6 7 -7 18 -3 24 5 9 2 10 -9 6 -9 -3 -17 -1 -20 6 -2 6 -6 4
-10 -5z"/>
<path d="M4604 3097 c3 -12 6 -30 6 -39 0 -20 26 -25 32 -7 3 9 10 9 26 0 19
-10 23 -9 29 5 5 15 7 15 15 0 11 -20 28 -21 28 -1 0 18 11 19 29 3 11 -11 11
-9 2 9 -7 14 -8 24 -1 28 10 6 14 -1 11 -19 -1 -4 4 -15 11 -24 10 -12 10 -14
1 -8 -7 4 -13 3 -13 -3 0 -6 9 -15 19 -20 15 -8 20 -7 24 8 2 11 0 25 -7 32
-6 8 -1 5 12 -5 23 -20 30 -32 10 -20 -7 5 -8 3 -4 -5 5 -7 13 -10 20 -8 6 3
20 -1 31 -9 11 -9 14 -14 6 -14 -11 0 -11 -3 0 -16 7 -9 21 -13 33 -10 22 6
116 -32 116 -46 0 -4 5 -8 11 -8 6 0 25 -11 43 -25 30 -23 46 -24 46 -3 0 4
-6 8 -13 8 -7 0 -17 8 -24 19 -6 10 -25 21 -41 24 -16 3 -45 22 -64 41 -34 34
-74 53 -50 23 8 -10 6 -13 -9 -13 -10 0 -19 4 -19 8 0 4 -25 26 -55 50 -30 23
-55 46 -55 51 0 4 12 -4 27 -18 15 -14 35 -25 43 -25 10 0 5 9 -13 26 -27 24
-35 26 -149 29 -119 4 -120 3 -114 -18z m63 -12 c0 -11 -4 -12 -14 -4 -7 6
-13 13 -13 15 0 2 6 4 13 4 8 0 14 -7 14 -15z m63 -13 c0 -15 -2 -15 -10 -2
-13 20 -13 33 0 25 6 -3 10 -14 10 -23z"/>
<path d="M655 3040 c-10 -11 -16 -22 -13 -25 3 -3 13 4 23 15 10 11 16 22 13
25 -3 3 -13 -4 -23 -15z"/>
<path d="M1445 3006 c-5 -14 -8 -38 -6 -55 1 -10 4 -11 15 -2 9 8 21 8 40 1
29 -11 33 0 17 43 -7 17 -17 25 -36 25 -15 0 -28 -6 -30 -12z"/>
<path d="M1356 2968 c-9 -12 -16 -17 -16 -10 0 19 -18 14 -30 -9 -14 -25 -6
-36 14 -20 8 7 17 8 20 3 9 -15 63 -12 63 3 0 8 -4 12 -9 9 -4 -3 -8 6 -8 20
0 32 -14 33 -34 4z"/>
<path d="M3192 2958 c-7 -7 -16 -13 -20 -13 -4 0 -27 -22 -52 -48 -25 -26 -60
-55 -78 -65 -35 -18 -142 -120 -142 -134 0 -17 16 -6 55 37 26 30 42 41 46 33
5 -8 12 -3 20 15 14 30 39 37 34 10 -2 -10 -4 -19 -5 -20 -2 -2 -3 -7 -4 -12
0 -5 -4 -13 -8 -17 -5 -4 -8 -16 -8 -27 0 -27 25 -15 27 14 9 84 33 130 71
136 33 4 113 103 84 103 -4 0 -14 -6 -20 -12z"/>
<path d="M4832 2943 c4 -16 -14 -73 -23 -73 -12 0 -11 14 2 27 6 6 8 17 3 24
-5 9 -12 2 -21 -22 -10 -27 -12 -29 -10 -9 2 20 -2 24 -18 22 -11 -2 -28 -11
-37 -19 -10 -9 -19 -13 -19 -10 -1 4 -3 12 -4 17 -1 6 -3 13 -4 17 0 3 -10 -2
-20 -11 -11 -10 -25 -15 -30 -11 -6 3 -11 0 -11 -8 0 -22 12 -28 28 -15 11 10
17 9 26 -5 9 -12 16 -13 24 -5 8 8 22 6 52 -6 50 -20 46 -20 55 7 l8 22 4 -22
c5 -24 19 -31 25 -12 2 6 21 -14 42 -46 25 -38 42 -55 52 -51 9 3 32 -10 57
-32 23 -21 53 -46 67 -55 l24 -17 -27 0 c-16 0 -32 -8 -39 -19 -9 -15 -16 -17
-30 -10 -21 11 -24 -1 -8 -32 12 -22 -2 -26 -19 -5 -9 11 -9 20 -2 35 14 25
14 31 1 31 -5 0 -10 -9 -10 -20 0 -11 -5 -20 -11 -20 -6 0 -8 9 -4 20 8 26 -2
25 -27 -2 -13 -15 -21 -19 -24 -11 -4 8 -13 9 -29 3 -26 -10 -35 -5 -35 22 0
34 -17 10 -25 -34 -7 -44 -9 -43 -19 4 -8 34 -36 28 -60 -13 -28 -48 -43 -32
-21 24 9 23 -10 22 -27 -1 -7 -10 -25 -22 -40 -26 -16 -3 -28 -11 -28 -17 0
-11 16 -9 53 6 14 6 17 2 17 -19 0 -32 7 -32 37 -4 18 17 22 18 18 6 -4 -9 -3
-22 1 -29 4 -8 14 4 25 32 17 43 18 43 18 13 2 -79 31 -128 31 -51 0 29 3 32
30 33 17 1 30 -3 30 -9 0 -5 7 -7 14 -4 9 4 13 1 10 -6 -2 -7 9 -26 26 -42 24
-23 33 -27 39 -16 7 11 11 10 20 -5 11 -19 11 -18 26 0 16 22 16 22 33 -16 6
-16 17 -28 24 -28 16 -1 62 -41 70 -61 5 -12 -2 -15 -36 -13 -22 1 -43 -1 -46
-5 -3 -3 -15 -11 -27 -18 -17 -10 -23 -10 -27 0 -3 9 -7 9 -13 1 -4 -6 -20
-14 -35 -17 -20 -6 -27 -3 -30 10 -3 14 -7 12 -21 -12 -9 -16 -16 -24 -17 -17
0 16 -25 15 -39 -2 -10 -11 -8 -15 6 -19 17 -4 16 -5 -2 -11 -11 -4 -29 -12
-40 -18 -11 -6 -35 -15 -52 -19 -28 -6 -33 -4 -33 12 0 21 -25 26 -33 6 -3 -7
1 -21 9 -32 12 -16 18 -17 50 -7 24 7 44 8 62 1 21 -8 31 -6 53 11 32 23 39
25 39 9 0 -11 24 -39 34 -39 3 0 6 10 7 23 0 21 1 21 11 -3 11 -25 11 -25 17
10 l6 35 14 -32 c11 -28 17 -32 43 -29 35 4 88 -35 88 -65 0 -10 5 -20 10 -20
6 -1 16 -2 22 -3 7 0 13 -13 15 -28 2 -33 25 -77 52 -102 28 -26 28 0 0 30
-11 12 -22 34 -23 48 -4 29 -32 67 -48 63 -6 -1 -12 13 -14 31 -4 33 -50 112
-65 112 -5 0 -18 9 -29 20 -25 25 -27 49 -2 27 10 -10 21 -14 25 -11 3 3 26
-1 51 -9 25 -9 53 -13 64 -11 10 3 24 -2 31 -10 8 -9 20 -16 27 -16 12 0 12 5
-1 30 -8 16 -15 37 -15 47 -1 20 -33 63 -48 63 -5 0 -17 9 -26 19 -10 11 -24
17 -32 14 -13 -5 -19 8 -15 31 1 5 -16 28 -37 50 -22 23 -43 52 -47 66 -8 25
-8 25 14 6 24 -22 41 -15 21 9 -10 12 -9 16 5 21 16 6 58 -10 97 -38 9 -7 21
-9 25 -4 4 4 0 13 -10 20 -9 7 -17 19 -17 27 0 8 -19 25 -42 39 -22 14 -74 58
-115 98 -75 73 -100 87 -68 38 10 -14 15 -26 12 -26 -13 0 -47 70 -47 96 l0
28 35 -34 c19 -18 37 -31 41 -27 9 9 -5 27 -21 27 -7 0 -16 8 -19 18 -3 10
-20 26 -37 36 -26 15 -33 16 -40 5 -5 -8 -7 -20 -4 -27 3 -7 0 -10 -5 -7 -5 3
-7 19 -3 35 3 19 1 30 -6 30 -6 0 -10 -3 -9 -7z m51 -53 c3 -11 1 -20 -4 -20
-5 0 -9 9 -9 20 0 11 2 20 4 20 2 0 6 -9 9 -20z m-43 -296 c0 -8 -5 -12 -10
-9 -6 4 -8 11 -5 16 9 14 15 11 15 -7z m187 -366 c-3 -8 -6 -5 -6 6 -1 11 2
17 5 13 3 -3 4 -12 1 -19z"/>
<path d="M5016 2915 c9 -14 21 -25 26 -25 5 0 7 -4 4 -9 -3 -5 7 -14 24 -19
39 -14 49 3 13 22 -16 7 -37 23 -47 35 -26 29 -40 26 -20 -4z"/>
<path d="M4960 2894 c1 -22 90 -66 90 -45 0 6 -9 11 -19 11 -11 0 -23 5 -27
12 -5 8 -1 9 12 4 13 -5 16 -4 9 3 -14 13 -65 25 -65 15z"/>
<path d="M441 2867 c-6 -8 -8 -16 -5 -20 10 -9 34 4 34 19 0 18 -14 18 -29 1z"/>
<path d="M1540 2870 c0 -5 14 -23 31 -41 16 -17 34 -42 39 -55 9 -22 8 -24 -9
-14 -26 13 -44 13 -35 -1 4 -8 1 -8 -13 -1 -11 6 -28 9 -39 7 -10 -2 -27 -4
-36 -4 -13 -1 -18 -9 -18 -31 0 -16 -4 -30 -10 -30 -5 0 -10 10 -10 22 0 20
-1 20 -18 5 -10 -10 -26 -17 -35 -17 -9 0 -17 -7 -17 -15 0 -18 31 -20 48 -3
9 9 12 7 12 -11 0 -16 5 -21 14 -18 7 3 19 0 25 -6 8 -8 11 -7 11 6 0 10 5 14
15 11 11 -4 15 1 16 17 1 17 3 19 6 7 5 -20 23 -25 23 -7 0 6 7 9 15 5 18 -7
19 -2 4 27 -12 22 -12 22 9 3 29 -25 63 -96 47 -96 -29 0 -34 -25 -9 -49 34
-33 30 -41 -23 -42 -27 0 -59 -3 -73 -6 -49 -12 -95 -9 -92 6 2 8 -3 11 -13 8
-8 -4 -15 -2 -15 3 0 6 -7 10 -15 10 -14 0 -13 -3 1 -25 19 -30 5 -33 -21 -5
-10 11 -21 18 -24 15 -10 -10 -11 -44 -1 -50 6 -3 10 -15 10 -26 0 -18 -2 -19
-30 -4 -34 17 -40 18 -40 6 0 -5 14 -14 30 -21 31 -13 34 -21 21 -55 -8 -19
-8 -19 -20 3 -6 12 -16 22 -20 22 -15 0 1 -44 21 -58 14 -10 17 -21 12 -50 -7
-48 4 -61 91 -107 39 -21 72 -41 75 -45 5 -7 97 -62 102 -61 14 2 48 -14 48
-22 0 -6 3 -8 6 -4 7 7 73 -24 114 -53 14 -10 54 -27 89 -39 35 -11 70 -26 78
-32 24 -20 27 0 4 24 -12 13 -26 39 -31 58 -15 50 -26 309 -13 309 6 0 10 -38
9 -98 0 -88 3 -105 33 -182 34 -86 64 -130 88 -130 19 0 17 5 -15 37 -21 20
-32 46 -41 93 -7 36 -17 80 -23 98 -15 48 -5 65 35 58 201 -35 506 -20 757 39
85 20 173 41 195 47 22 6 43 11 47 10 4 -1 14 12 23 28 14 27 14 31 -2 47 -17
17 -17 20 1 56 10 20 22 37 27 37 5 0 9 9 9 20 0 11 4 20 9 20 12 0 8 -27 -7
-42 -7 -7 -12 -16 -12 -21 0 -5 -7 -15 -15 -23 -18 -19 -20 -35 -2 -28 7 2 18
18 24 35 14 36 36 30 27 -7 -5 -20 -3 -23 11 -18 14 6 14 2 -4 -26 -22 -36
-20 -53 5 -43 13 5 12 -1 -4 -33 -11 -21 -29 -48 -41 -58 -12 -11 -21 -23 -21
-28 0 -5 -6 -16 -14 -24 -13 -12 -17 -7 -31 36 -9 28 -21 50 -26 50 -11 0 -7
-17 22 -94 29 -78 60 -118 88 -113 13 3 81 -13 150 -35 69 -22 156 -48 193
-59 36 -10 113 -41 170 -67 94 -45 114 -60 226 -166 67 -65 122 -113 122 -108
0 13 -127 142 -140 142 -6 0 -10 8 -10 19 0 12 -22 32 -67 59 -73 44 -262 132
-283 132 -7 0 -11 3 -8 6 4 3 48 -4 100 -15 102 -22 156 -39 126 -40 -10 -1
-18 -5 -18 -11 0 -9 20 -14 47 -11 6 1 14 -3 18 -9 3 -5 15 -10 26 -10 10 0
19 -4 19 -9 0 -5 11 -8 25 -7 14 0 25 7 25 14 0 6 2 12 4 12 18 0 140 -33 172
-46 21 -9 52 -18 68 -20 42 -6 43 -11 9 -47 -56 -60 -84 -106 -98 -157 -8 -29
-11 -58 -8 -66 3 -8 0 -14 -6 -14 -5 0 -25 -13 -43 -28 -99 -85 -322 -159
-563 -187 -158 -19 -228 -39 -100 -29 44 3 89 8 100 9 11 2 47 6 80 10 61 7
164 34 291 78 91 32 127 51 190 98 58 45 64 46 64 19 0 -32 -57 -76 -155 -119
-96 -42 -145 -57 -320 -95 -153 -34 -158 -35 -265 -41 -52 -3 -103 -8 -113
-11 -15 -5 -18 -2 -12 15 8 26 -12 100 -33 124 -50 56 -155 58 -197 3 -83
-109 -105 -231 -60 -339 5 -13 3 -16 -8 -11 -21 8 -43 -29 -52 -86 -4 -25 -9
-54 -12 -65 -22 -96 -14 -150 22 -167 31 -14 32 -28 3 -29 -22 0 -22 -1 -3 -8
83 -34 313 1 397 60 33 24 37 24 70 -4 21 -17 26 -28 21 -49 -5 -24 -14 -30
-72 -48 -36 -11 -102 -27 -146 -36 -92 -19 -129 -40 -50 -29 58 8 132 27 194
49 53 19 68 13 19 -7 -72 -30 -201 -62 -293 -72 -29 -3 -85 12 -152 41 -17 8
-36 14 -41 14 -18 0 -97 100 -106 133 -8 30 -9 31 -17 10 -5 -14 -3 -32 7 -51
12 -26 12 -34 -2 -67 -19 -47 -12 -57 9 -13 10 19 17 26 17 16 0 -9 -5 -20
-11 -23 -5 -4 -9 -17 -8 -28 2 -35 -1 -43 -10 -28 -7 11 -11 9 -20 -8 -14 -25
-6 -45 12 -32 7 6 33 28 59 51 27 24 49 37 53 30 3 -5 15 -10 25 -10 10 0 25
-7 33 -14 8 -8 25 -16 38 -18 13 -2 30 -7 37 -12 22 -13 109 -19 116 -7 4 6
22 11 40 11 18 0 81 16 139 35 83 27 115 34 149 29 41 -6 47 -3 94 36 27 24
56 55 65 69 18 29 88 67 192 106 68 25 212 92 257 119 14 8 48 18 75 21 42 6
57 14 92 51 24 24 43 51 43 60 0 9 9 27 20 41 42 53 20 113 -42 113 -17 0 -19
3 -9 9 11 7 10 11 -5 19 -18 10 -18 11 -1 29 20 23 22 39 5 46 -9 4 -1 16 22
35 29 25 32 32 21 45 -11 14 -8 18 22 31 45 18 95 91 107 156 5 28 13 56 17
63 15 25 21 92 9 107 -11 12 -10 18 6 33 10 9 18 13 18 8 0 -5 12 -11 28 -13
26 -3 27 -6 36 -77 8 -74 -7 -196 -24 -186 -11 7 -28 -16 -32 -44 -3 -24 -4
-24 -21 -7 -19 20 -48 18 -55 -3 -3 -10 1 -12 19 -8 16 4 30 0 46 -15 21 -19
23 -20 23 -4 0 16 2 17 17 5 15 -13 16 -12 11 9 -4 12 -3 22 2 22 4 0 13 36
21 80 7 44 16 80 20 80 4 0 12 24 19 53 16 72 21 89 25 85 4 -4 -11 -87 -21
-111 -5 -13 -2 -18 7 -17 40 6 50 0 39 -20 -9 -16 -8 -22 5 -26 15 -6 22 -44
8 -44 -11 0 -43 -58 -43 -76 0 -21 18 -17 25 6 3 11 20 34 37 51 31 31 31 31
19 81 -12 45 -11 50 5 62 12 9 18 26 17 49 -1 21 5 41 14 49 14 11 15 8 8 -21
-4 -18 -8 -39 -9 -45 -1 -6 -4 -16 -8 -21 -11 -18 -2 -100 11 -97 9 2 10 -8 5
-34 -5 -27 -4 -35 5 -30 7 5 11 -1 11 -14 0 -12 4 -19 9 -16 15 9 31 -18 21
-34 -6 -8 -10 -24 -10 -35 1 -20 1 -20 15 -1 8 11 15 29 15 40 0 20 2 19 20
-4 l20 -25 -4 27 c-4 25 -48 190 -66 250 -6 20 -5 26 4 22 7 -3 25 7 40 22 27
27 27 27 33 6 7 -27 21 -28 39 -4 12 16 14 15 30 -7 16 -22 21 -23 83 -16 l66
7 -25 -20 c-14 -11 -40 -23 -57 -26 -36 -8 -45 -26 -13 -26 13 0 18 -5 14 -15
-9 -23 22 -18 46 7 11 12 20 19 20 16 0 -4 14 -3 30 2 46 13 39 -5 -28 -75
-13 -13 -22 -29 -20 -36 2 -6 23 14 47 45 44 57 71 71 71 38 0 -10 3 -22 7
-25 10 -11 33 14 33 37 0 19 2 19 18 -7 10 -15 34 -38 52 -52 18 -13 44 -40
58 -60 14 -19 29 -35 34 -35 16 0 7 25 -17 48 -13 13 -29 39 -35 58 -10 28
-15 33 -26 24 -17 -15 -64 29 -64 60 0 31 -17 15 -26 -23 l-7 -32 -9 34 c-7
25 -13 32 -27 28 -19 -5 -42 15 -53 45 -7 16 -40 16 -115 2 -29 -6 -35 -3 -50
25 -21 36 -29 39 -38 11 -8 -26 -20 -25 -31 1 -10 21 -10 21 -44 -7 l-33 -29
7 29 c6 23 4 27 -8 23 -9 -4 -16 -2 -16 3 0 5 -8 8 -17 8 -10 0 -27 3 -37 7
-15 7 -18 5 -14 -7 4 -8 2 -21 -2 -29 -7 -11 -10 -10 -16 4 -3 9 -14 17 -24
17 -10 0 -21 7 -24 16 -3 8 -10 13 -14 10 -5 -3 -21 8 -37 24 -15 16 -21 27
-14 26 8 -2 32 -6 54 -11 22 -4 57 -16 78 -27 28 -14 37 -15 37 -5 0 7 -5 18
-12 25 -7 7 -8 12 -3 12 5 0 0 7 -11 15 -19 15 -19 15 1 13 43 -3 65 3 65 16
0 8 8 17 17 20 12 5 14 9 5 18 -15 15 -15 28 -2 28 5 0 12 -11 16 -25 3 -13
11 -28 17 -34 17 -13 56 -18 59 -6 2 6 -7 11 -19 13 -24 3 -53 37 -53 60 0 7
21 -7 47 -32 44 -43 47 -44 70 -29 31 21 25 37 -18 43 -26 4 -33 9 -31 24 2
10 -4 23 -13 30 -15 11 -14 13 9 24 14 6 26 16 26 22 0 13 -1 13 -43 -5 -20
-8 -40 -15 -45 -15 -19 0 -62 47 -80 88 -10 23 -42 65 -71 93 -28 27 -49 55
-45 60 3 6 -3 19 -15 30 -21 20 -41 25 -41 10 0 -5 -9 -7 -19 -4 -11 3 -34 -2
-52 -11 -17 -9 -35 -13 -40 -10 -5 3 -9 1 -9 -4 0 -5 14 -12 30 -14 17 -3 30
-1 30 4 0 11 38 10 45 -2 3 -5 14 -10 25 -10 25 0 200 -230 200 -264 0 -2 -8
-2 -18 1 -14 3 -18 -1 -17 -21 0 -13 3 -28 8 -32 4 -4 7 -16 7 -27 0 -29 -24
-14 -30 19 -4 19 -8 25 -13 16 -5 -7 -13 -10 -18 -7 -5 4 -9 1 -9 -5 0 -7 -6
-10 -14 -7 -8 3 -20 -1 -26 -9 -10 -11 -9 -14 3 -14 18 0 30 -27 16 -35 -5 -4
-16 1 -24 9 -9 8 -23 13 -33 10 -14 -5 -13 -2 3 11 19 16 19 16 -10 11 -16 -2
-33 -5 -37 -5 -5 -1 -8 -10 -8 -21 0 -22 -10 -26 -28 -8 -8 8 -15 8 -25 0 -8
-7 -17 -9 -21 -5 -4 4 -4 0 -1 -8 3 -9 -2 -22 -11 -30 -16 -13 -17 -11 -12 14
6 32 6 32 -44 41 -31 6 -37 4 -32 -8 4 -11 -3 -17 -23 -22 -42 -11 -63 -7 -89
17 -13 12 -24 19 -24 14 0 -4 -9 0 -20 10 -10 9 -26 15 -34 12 -9 -4 -18 -2
-20 2 -3 5 -17 9 -31 9 -18 0 -25 -6 -25 -19 0 -17 -6 -19 -45 -15 -25 3 -45
0 -45 -5 0 -5 12 -9 28 -9 15 0 37 -3 50 -6 16 -5 22 -2 22 10 0 27 21 18 33
-14 6 -16 15 -30 20 -30 5 0 6 7 3 15 -18 45 -18 50 2 28 26 -29 35 -29 26 0
-6 21 -6 21 13 4 11 -9 24 -33 30 -52 12 -39 1 -45 -39 -24 -23 12 -243 75
-378 108 -245 59 -447 104 -467 104 -15 -1 -20 4 -16 16 4 13 3 13 -5 2 -6 -8
-19 -12 -30 -8 -12 2 -23 0 -25 -6 -3 -11 -57 60 -57 75 0 5 7 8 15 8 9 0 19
10 24 23 5 12 21 33 35 46 14 14 26 30 26 37 0 6 7 17 15 24 11 9 14 26 12 56
-2 29 1 45 10 48 9 4 13 -3 13 -20 0 -14 4 -22 10 -19 6 3 10 1 10 -4 0 -16
21 -13 42 5 16 16 19 15 36 -6 l18 -22 35 21 c19 11 57 21 86 23 28 2 49 7 46
11 -3 5 -31 7 -63 5 -32 -1 -62 0 -66 5 -4 4 -18 7 -31 7 -13 0 -23 5 -23 11
0 11 -28 9 -64 -6 -14 -6 -17 -5 -12 4 6 9 1 10 -18 5 -31 -7 -35 9 -10 44 15
21 42 32 29 12 -3 -5 -1 -10 4 -10 6 0 11 9 11 20 0 24 -8 25 -40 4 -22 -14
-22 -12 3 10 16 15 22 26 14 26 -19 0 -71 -56 -63 -68 4 -6 1 -14 -5 -18 -7
-4 -9 -3 -5 4 3 6 2 13 -4 17 -16 10 -6 41 24 69 31 27 46 33 46 15 0 -5 14 3
32 20 30 28 31 32 19 55 -14 25 -35 27 -25 3 6 -17 -18 -38 -93 -79 -35 -19
-61 -37 -58 -40 3 -3 -5 -3 -19 -1 -28 6 -69 -14 -60 -28 4 -7 10 -7 17 0 18
18 28 12 17 -10 -13 -24 -4 -41 10 -19 6 8 10 11 10 6 0 -5 -7 -17 -16 -27
-14 -16 -18 -15 -62 7 -26 13 -52 24 -58 24 -6 0 -19 9 -29 19 -33 37 -129 59
-257 59 -65 -1 -118 -4 -118 -8 0 -5 57 -10 128 -12 98 -4 137 -9 171 -24 l44
-20 -39 -11 c-21 -6 -85 -19 -141 -29 -109 -19 -125 -30 -99 -68 46 -64 100
-106 139 -107 28 -1 26 -2 -18 -15 -27 -7 -59 -13 -70 -13 -17 1 -17 2 -2 6
33 9 26 22 -77 133 -32 35 -43 40 -79 40 -23 0 -58 -4 -77 -9 -33 -9 -85 -13
-303 -28 -54 -3 -100 -10 -103 -15 -10 -16 -69 -7 -154 22 -46 16 -88 26 -92
24 -4 -3 -9 -20 -9 -37 -1 -18 -5 -45 -10 -62 -6 -22 -7 -14 -5 32 2 38 -1 66
-8 71 -22 16 -124 44 -135 38 -16 -10 -51 3 -51 18 0 9 -9 12 -25 8 -19 -3
-24 -1 -20 10 5 11 32 17 105 22 55 4 130 13 167 21 37 8 85 15 106 15 24 0
36 4 32 11 -5 6 -27 8 -61 3 -37 -4 -54 -3 -54 5 0 6 5 11 10 11 19 0 10 17
-34 60 -29 29 -42 49 -39 61 3 11 9 19 14 19 5 0 6 7 3 15 -4 8 -1 15 6 15 6
0 -14 29 -45 65 -55 62 -75 77 -75 55z m136 -267 c-7 -7 -26 7 -26 19 0 6 6 6
15 -2 9 -7 13 -15 11 -17z m4 -33 c13 -8 13 -10 -2 -10 -9 0 -20 5 -23 10 -8
13 5 13 25 0z m-315 -70 c3 -5 1 -10 -4 -10 -6 0 -11 5 -11 10 0 6 2 10 4 10
3 0 8 -4 11 -10z m41 -40 l27 -11 -8 -82 c-5 -45 -9 -97 -9 -114 0 -18 -1 -33
-3 -33 -2 0 -22 12 -44 27 l-41 27 7 59 c3 32 11 71 17 85 6 15 10 33 9 40 -2
15 9 15 45 2z m1426 3 c2 -5 25 -19 51 -33 52 -27 83 -55 70 -63 -34 -19 -217
-69 -266 -74 -58 -4 -65 -3 -100 25 -21 17 -47 42 -58 56 -26 32 -29 31 146
67 155 31 152 31 157 22z m-1286 -32 c5 -5 25 -13 44 -18 34 -9 35 -11 35 -59
1 -27 -2 -65 -6 -84 -4 -19 -10 -61 -14 -92 -7 -65 -24 -74 -63 -38 -12 11
-25 20 -31 20 -17 0 -21 31 -21 156 0 123 0 124 23 124 13 0 27 -4 33 -9z
m1643 -32 c-25 -16 -32 -9 -13 12 12 13 20 16 22 9 3 -7 -2 -16 -9 -21z
m-1729 -99 c13 -8 16 -103 4 -107 -28 -9 -35 25 -27 124 7 83 8 90 11 43 2
-30 7 -57 12 -60z m1804 104 c9 -3 13 -10 10 -15 -9 -14 -41 -10 -48 6 -6 16
10 20 38 9z m-782 -63 c32 -33 58 -64 58 -69 0 -22 -576 -28 -609 -7 -13 7
-14 64 -3 82 5 7 43 14 92 18 190 12 311 23 317 29 4 3 24 6 46 6 36 0 47 -6
99 -59z m-719 29 c94 -35 90 -29 98 -192 3 -79 10 -154 14 -167 6 -21 5 -22
-17 -16 -36 11 -181 85 -201 103 -16 14 -18 26 -13 82 4 36 11 83 16 105 5 22
10 55 10 73 0 39 15 41 93 12z m1202 -20 c-8 -13 -76 -42 -83 -35 -3 2 15 13
39 24 53 24 52 23 44 11z m-500 -123 c-102 -12 -463 -13 -475 -1 -5 5 93 9
268 9 189 0 255 -3 207 -8z m-838 -89 c-3 -8 -6 -5 -6 6 -1 11 2 17 5 13 3 -3
4 -12 1 -19z m2538 -199 c11 -17 2 -18 -19 -3 -17 12 -17 14 -4 14 9 0 20 -5
23 -11z m-425 -15 c0 -2 -9 -4 -21 -4 -11 0 -18 4 -14 10 5 8 35 3 35 -6z
m520 -33 c0 -12 -20 -25 -27 -18 -7 7 6 27 18 27 5 0 9 -4 9 -9z m40 -12 c0
-5 -7 -9 -15 -9 -15 0 -20 12 -9 23 8 8 24 -1 24 -14z m-181 -69 c32 -8 60
-26 50 -33 -2 -1 -33 -16 -68 -32 -86 -40 -159 -120 -163 -179 l-3 -41 -13 42
c-14 48 -1 95 51 173 48 73 69 92 92 85 11 -4 35 -10 54 -15z m281 -51 c0 -5
-4 -8 -9 -5 -5 4 -12 0 -14 -6 -3 -8 -6 -6 -6 5 -1 9 6 17 14 17 8 0 15 -5 15
-11z m31 -12 c-10 -9 -11 -8 -5 6 3 10 9 15 12 12 3 -3 0 -11 -7 -18z m-256
-7 c3 -5 1 -10 -4 -10 -6 0 -11 5 -11 10 0 6 2 10 4 10 3 0 8 -4 11 -10z m-24
-37 c3 -106 -7 -136 -63 -190 -35 -33 -75 -48 -94 -36 -20 14 -26 60 -8 67 12
4 14 1 9 -14 -7 -22 20 -29 28 -7 4 9 8 8 16 -3 13 -20 22 -9 14 19 -3 13 -11
20 -19 17 -18 -7 -18 4 2 32 11 16 22 21 35 17 11 -4 19 -2 19 4 0 6 9 11 21
11 11 0 18 4 15 9 -7 10 -56 9 -73 -2 -10 -6 -13 2 -13 30 0 40 16 57 70 74
39 12 40 11 41 -28z m614 17 c-3 -5 -11 -10 -16 -10 -6 0 -7 5 -4 10 3 6 11
10 16 10 6 0 7 -4 4 -10z m-248 -55 c0 -8 -4 -12 -9 -9 -5 3 -6 10 -3 15 9 13
12 11 12 -6z m-518 -41 c-31 -33 -36 -22 -8 17 13 19 25 27 27 20 2 -7 -6 -23
-19 -37z m525 1 c3 -8 1 -15 -4 -15 -6 0 -10 7 -10 15 0 8 2 15 4 15 2 0 6 -7
10 -15z m-503 -28 c-10 -9 -11 -8 -5 6 3 10 9 15 12 12 3 -3 0 -11 -7 -18z
m-49 -21 c6 4 9 1 6 -6 -8 -24 -28 -23 -27 2 0 13 3 17 6 10 2 -6 9 -9 15 -6z
m-18 -82 c3 -8 2 -12 -4 -9 -6 3 -10 10 -10 16 0 14 7 11 14 -7z m-38 -21
c-10 -10 -19 5 -10 18 6 11 8 11 12 0 2 -7 1 -15 -2 -18z m-950 -52 c35 -21
68 -90 36 -75 -60 29 -164 -11 -211 -80 -36 -51 -37 -58 -15 -54 10 2 19 -4
21 -12 4 -12 3 -12 -5 -2 -21 30 -30 -55 -11 -105 7 -20 7 -25 0 -18 -16 16
-33 122 -27 166 7 52 50 134 89 169 38 35 78 38 123 11z m831 -15 c-10 -8 -43
-25 -72 -38 -54 -23 -77 -46 -32 -32 49 15 51 14 14 -6 -22 -12 -36 -24 -33
-27 2 -3 44 16 92 41 48 26 89 44 91 42 8 -7 -17 -46 -29 -46 -19 0 -108 -43
-108 -52 0 -11 2 -11 55 17 26 14 49 24 51 22 2 -2 -26 -23 -61 -46 -36 -24
-68 -48 -71 -53 -8 -13 54 20 92 48 17 13 35 24 39 24 13 0 -26 -39 -77 -77
-27 -19 -48 -39 -48 -44 0 -19 -135 -123 -183 -142 -9 -3 -17 -11 -17 -17 0
-21 128 59 202 127 49 45 68 53 68 28 0 -21 -183 -153 -259 -185 -13 -6 -21
-13 -18 -16 7 -7 33 7 132 70 44 28 89 52 100 53 11 1 33 4 49 7 29 5 84 -16
98 -38 20 -30 18 -31 -232 -148 -63 -30 -149 -67 -191 -81 l-77 -27 -47 23
-47 24 79 33 c43 18 103 41 133 51 86 27 287 119 306 140 20 22 3 26 -19 5
-16 -17 -250 -120 -294 -130 -21 -5 -24 -4 -13 4 24 16 1 12 -80 -14 -41 -13
-91 -27 -112 -30 -20 -3 -56 -12 -80 -20 -48 -16 -105 -19 -113 -6 -3 4 14 11
38 14 99 15 332 83 290 85 -12 1 -33 -3 -47 -9 -44 -16 -209 -58 -251 -64 -22
-2 -66 -8 -97 -12 -42 -5 -58 -3 -58 5 0 8 -6 9 -17 3 -10 -5 -43 -12 -73 -16
-30 -4 -66 -10 -80 -13 -17 -4 -22 -2 -15 5 6 6 30 13 55 16 78 9 120 25 130
50 9 23 11 24 145 42 39 5 206 40 225 48 8 3 28 10 44 16 16 6 27 13 24 15 -3
3 -23 -1 -46 -9 -22 -8 -53 -17 -69 -19 -15 -3 -62 -12 -103 -20 -41 -9 -106
-19 -145 -23 -38 -3 -79 -12 -90 -19 -67 -44 -235 -53 -235 -13 0 25 18 30 65
18 l40 -10 -47 4 c-51 4 -65 -9 -22 -20 41 -11 135 5 189 30 33 16 87 29 155
37 120 14 189 32 95 24 -162 -14 -220 -17 -214 -12 3 4 48 11 100 17 115 13
241 38 253 51 13 12 9 12 -92 -10 -48 -11 -118 -22 -157 -24 -38 -3 -78 -9
-89 -13 -14 -5 -17 -3 -14 7 3 9 34 18 89 26 129 19 249 45 255 55 4 5 -8 7
-28 3 -246 -44 -295 -50 -295 -38 0 7 2 13 4 13 53 0 276 37 306 51 30 13 36
19 20 19 -12 0 -32 -4 -46 -9 -13 -5 -48 -12 -78 -15 -30 -4 -70 -9 -89 -12
-82 -12 -100 -13 -100 -4 0 15 12 18 113 25 54 3 121 15 150 25 64 23 52 24
-60 6 -49 -8 -113 -17 -143 -20 -50 -5 -53 -4 -30 8 14 8 79 19 145 25 148 13
395 73 395 95 0 2 -26 -3 -57 -11 -189 -46 -487 -93 -501 -79 -15 15 21 25
115 31 167 11 527 90 610 134 45 24 78 28 50 7z m218 5 c-7 -12 -88 -25 -107
-18 -7 2 7 9 32 15 59 13 82 14 75 3z m-1024 -93 c36 -10 38 -13 24 -28 -9
-10 -21 -46 -27 -81 -9 -47 -21 -76 -47 -109 -19 -25 -35 -45 -36 -46 0 -1
-18 -4 -40 -7 -39 -6 -41 -6 -53 31 -24 67 -26 92 -8 92 9 0 16 -7 16 -15 0
-9 6 -12 16 -8 11 4 13 13 9 33 -4 18 -1 31 10 40 13 10 15 10 15 -6 0 -13 3
-15 11 -7 6 6 18 9 27 6 12 -5 14 -1 9 18 -4 13 -7 29 -7 34 0 6 -7 -1 -15
-15 -13 -24 -14 -24 -10 15 1 22 3 43 4 47 1 7 25 15 50 17 7 0 31 -4 52 -11z
m909 2 c0 -5 -9 -10 -19 -10 -11 0 -22 -6 -24 -12 -3 -7 -6 -3 -6 10 -1 17 5
22 24 22 14 0 25 -4 25 -10z m60 -20 c-35 -29 -50 -33 -53 -15 -1 6 14 15 33
21 l35 12 -30 4 c-26 4 -24 5 10 6 l40 1 -35 -29z m-1101 -37 c-15 -41 -19
-44 -41 -32 -20 11 -20 11 8 40 32 33 48 30 33 -8z m981 -3 c0 -5 -5 -10 -11
-10 -5 0 -7 5 -4 10 3 6 8 10 11 10 2 0 4 -4 4 -10z m75 -19 c3 -5 -20 -21
-52 -36 -51 -23 -58 -24 -72 -10 -21 21 -5 34 55 44 27 5 52 9 56 10 4 0 9 -3
13 -8z m108 -10 c31 -12 35 -36 11 -69 -11 -15 -20 -20 -27 -14 -26 21 -129
31 -177 18 -14 -3 3 7 38 24 34 17 66 38 69 46 6 17 32 15 86 -5z m-238 -91
c-7 -11 -65 -43 -65 -36 0 4 62 45 68 46 2 0 0 -5 -3 -10z m120 -16 c33 -8 63
-18 68 -23 13 -13 -5 -71 -26 -82 -18 -10 -19 -9 -13 14 10 42 -11 75 -53 82
-41 7 -77 25 -51 25 9 0 43 -7 75 -16z m105 -15 c0 -6 -4 -7 -10 -4 -5 3 -10
11 -10 16 0 6 5 7 10 4 6 -3 10 -11 10 -16z m-99 -46 c5 -13 2 -28 -7 -42 -22
-30 -38 -26 -17 5 14 22 14 29 4 46 -10 16 -10 19 0 16 7 -2 16 -13 20 -25z
m-1121 -33 c11 -7 3 -10 -28 -10 -26 0 -41 4 -37 10 8 13 45 13 65 0z m105
-30 c-11 -5 -31 -8 -45 -8 l-25 0 25 8 c14 4 34 8 45 8 l20 1 -20 -9z m895
-35 c0 -7 -125 -65 -137 -64 -7 0 126 69 134 69 2 0 3 -2 3 -5z m-885 -24
c-11 -10 -82 -25 -72 -15 5 5 26 11 77 23 2 1 0 -3 -5 -8z m530 -1 c-40 -18
-160 -67 -177 -73 -21 -7 -24 -27 -4 -27 25 0 104 -40 110 -56 7 -18 -19 -60
-28 -46 -3 6 -3 17 0 26 5 12 -7 22 -48 41 -65 30 -125 44 -114 27 4 -7 14
-12 21 -12 16 0 125 -46 125 -53 0 -2 -5 -19 -11 -38 -15 -43 -47 -79 -71 -79
-22 0 -23 13 -3 30 9 7 15 29 15 51 0 35 -3 40 -37 55 -21 9 -50 17 -65 18
-14 0 -24 4 -21 9 2 4 -2 7 -9 7 -10 0 -10 2 1 9 19 12 3 34 -20 28 -11 -3
-19 -1 -19 5 0 6 13 8 34 4 20 -4 52 -1 77 8 24 8 68 19 97 26 29 7 74 20 100
31 47 18 85 25 47 9z m-728 -22 c-3 -8 -6 -5 -6 6 -1 11 2 17 5 13 3 -3 4 -12
1 -19z m110 6 c-3 -3 -12 -4 -19 -1 -8 3 -5 6 6 6 11 1 17 -2 13 -5z m-57 -33
c0 -5 -6 -12 -12 -14 -7 -3 16 -6 52 -8 l65 -2 -65 -6 c-36 -4 -68 -3 -71 2
-9 13 -16 -3 -17 -41 -1 -43 28 -55 122 -49 63 4 73 8 103 37 18 18 29 38 26
43 -4 6 -1 7 7 2 7 -4 30 -9 51 -9 47 -2 54 -8 38 -34 -25 -40 -288 -109 -312
-82 -9 10 -9 11 1 6 6 -4 12 -3 12 2 0 4 -15 15 -32 23 -32 13 -33 17 -36 77
l-3 62 36 0 c19 0 35 -4 35 -9z m875 -1 c-3 -5 -12 -10 -18 -10 -7 0 -6 4 3
10 19 12 23 12 15 0z m-695 -4 c0 -3 -4 -8 -10 -11 -5 -3 -10 -1 -10 4 0 6 5
11 10 11 6 0 10 -2 10 -4z m-36 -15 c4 -5 -3 -7 -14 -4 -23 6 -26 13 -6 13 8
0 17 -4 20 -9z m36 -19 c0 -5 -7 -17 -16 -28 -8 -10 -14 -14 -11 -9 2 6 7 18
10 28 7 17 17 23 17 9z m-50 -26 c0 -22 -6 -26 -44 -31 -25 -4 -51 -5 -58 -2
-7 3 4 6 25 6 23 1 37 6 37 14 0 14 20 37 32 37 4 0 8 -11 8 -24z m-140 -17
c0 -11 -4 -17 -10 -14 -5 3 -10 13 -10 21 0 8 5 14 10 14 6 0 10 -9 10 -21z
m35 3 c-3 -3 -11 0 -18 7 -9 10 -8 11 6 5 10 -3 15 -9 12 -12z m305 -27 c0 -7
-86 -43 -121 -49 -24 -5 65 36 119 53 1 1 2 -1 2 -4z m136 -80 c-4 -14 -10
-25 -15 -25 -5 0 -4 13 2 30 13 35 22 32 13 -5z"/>
<path d="M3295 1023 c-66 -19 -186 -42 -258 -50 -32 -3 -60 -10 -64 -16 -7
-11 58 -4 187 19 112 20 190 42 190 54 0 6 -1 9 -2 9 -2 -1 -25 -8 -53 -16z"/>
<path d="M3340 1000 c-14 -4 -50 -15 -80 -25 -30 -9 -109 -25 -175 -36 -112
-17 -115 -18 -40 -14 78 5 289 49 316 66 20 12 8 17 -21 9z"/>
<path d="M2778 743 c7 -3 16 -2 19 1 4 3 -2 6 -13 5 -11 0 -14 -3 -6 -6z"/>
<path d="M368 2862 c-19 -4 -24 -17 -9 -26 5 -3 14 1 21 9 15 18 12 23 -12 17z"/>
<path d="M3283 2818 c1 -7 -10 -14 -25 -15 -16 -2 -39 -4 -53 -5 -32 -4 -58
-28 -29 -28 47 0 34 -37 -26 -75 -23 -14 -42 -36 -46 -50 -8 -32 -4 -36 24
-28 16 4 21 11 17 22 -7 24 43 71 54 52 6 -10 19 -2 51 31 25 25 40 35 35 23
-21 -55 -17 -60 18 -23 20 20 38 34 41 30 3 -3 14 2 25 12 17 16 19 16 24 -4
3 -13 10 -18 21 -14 14 5 14 8 -2 30 -9 13 -22 22 -29 19 -6 -2 -13 1 -16 8
-2 7 -15 0 -31 -18 -15 -17 -24 -24 -20 -16 4 8 8 25 10 38 2 18 -3 23 -22 23
-13 0 -23 -5 -21 -12z"/>
<path d="M3090 2762 c0 -22 5 -32 15 -32 8 0 15 5 15 10 0 6 6 10 13 9 35 -4
40 1 22 21 -12 14 -22 17 -30 10 -7 -6 -15 -6 -23 2 -9 9 -12 5 -12 -20z"/>
<path d="M2975 2729 c-4 -6 -5 -12 -2 -15 2 -3 7 2 10 11 7 17 1 20 -8 4z"/>
<path d="M4207 2705 c-4 -8 -1 -15 6 -15 8 0 8 -3 -2 -9 -7 -5 -9 -11 -4 -14
14 -9 29 6 28 27 0 24 -21 32 -28 11z"/>
<path d="M2937 2685 c-8 -19 13 -31 24 -14 13 20 11 29 -5 29 -8 0 -16 -7 -19
-15z"/>
<path d="M3909 2678 c-7 -13 -16 -17 -31 -12 -14 4 -18 3 -13 -5 8 -14 -10
-38 -39 -52 -19 -9 -20 -9 -3 4 23 19 22 24 -7 29 -18 4 -28 -2 -40 -24 -10
-15 -23 -28 -30 -28 -13 0 -31 -29 -23 -36 4 -5 84 24 129 47 33 17 42 18 49
8 6 -10 10 -9 15 6 4 11 12 23 18 27 12 8 35 -28 36 -54 0 -25 27 -22 36 4 6
21 7 21 22 -8 8 -16 19 -32 24 -35 5 -3 9 -10 8 -15 -1 -5 3 -10 9 -12 15 -5
14 35 -1 41 -7 3 -22 22 -33 43 -10 22 -20 41 -22 43 -2 2 -11 -3 -22 -13 -17
-16 -19 -16 -25 0 -4 10 -1 22 5 28 9 8 10 8 5 -1 -4 -8 -1 -13 8 -13 32 0 15
26 -24 37 -36 9 -42 8 -51 -9z"/>
<path d="M351 2661 c-7 -5 -11 -13 -7 -19 3 -6 -2 -15 -11 -21 -13 -7 -15 -13
-7 -21 13 -13 47 21 49 50 2 22 -3 24 -24 11z"/>
<path d="M353 2594 c-13 -14 -23 -31 -23 -37 0 -7 11 0 24 15 13 15 27 24 30
21 3 -4 6 1 6 10 0 24 -11 21 -37 -9z"/>
<path d="M3930 2580 c0 -11 4 -20 9 -20 17 0 19 15 5 28 -12 11 -14 9 -14 -8z"/>
<path d="M373 2565 c-9 -25 4 -29 17 -6 7 15 7 21 0 21 -6 0 -13 -7 -17 -15z"/>
<path d="M1576 2565 c-3 -9 0 -15 9 -15 8 0 15 7 15 15 0 8 -4 15 -9 15 -5 0
-11 -7 -15 -15z"/>
<path d="M1839 2559 c-9 -5 22 -8 76 -8 101 1 102 5 4 12 -37 2 -73 1 -80 -4z"/>
<path d="M2010 2561 c0 -9 27 -12 108 -10 59 2 154 0 212 -4 76 -5 97 -4 75 3
-48 17 -395 26 -395 11z"/>
<path d="M2470 2501 c0 -6 18 -11 43 -12 23 -1 34 -3 24 -6 -22 -6 -17 -27 8
-31 10 -3 15 0 11 7 -5 7 5 11 28 11 32 0 55 14 43 26 -3 3 -39 8 -81 11 -54
4 -76 3 -76 -6z"/>
<path d="M206 2354 c-37 -44 -37 -54 1 -54 12 0 23 -4 23 -10 0 -5 4 -10 10
-10 5 0 9 9 7 21 -1 12 7 27 20 36 21 14 22 14 17 -9 -9 -40 -9 -43 1 -43 5 0
9 6 7 13 -4 17 17 15 24 -3 8 -19 40 -3 49 25 8 24 25 17 25 -10 0 -10 7 -20
15 -24 8 -3 15 -12 15 -21 0 -18 16 -20 23 -2 3 6 6 2 6 -10 1 -28 17 -38 29
-18 7 14 14 10 48 -20 l39 -36 3 44 c3 41 5 44 28 39 19 -3 23 -9 19 -23 -5
-13 -1 -19 10 -19 15 0 15 -3 -3 -33 -22 -39 -37 -107 -23 -107 5 0 11 4 13
10 2 5 25 34 52 64 l49 55 31 -21 c17 -12 36 -29 42 -37 6 -8 16 -11 22 -7 14
8 16 -46 6 -131 -7 -52 -7 -53 -40 -53 -19 0 -34 -3 -34 -7 0 -16 19 -37 26
-30 4 4 13 2 21 -4 10 -9 13 -8 13 0 0 7 4 10 9 6 15 -9 22 27 24 139 1 58 4
106 6 106 11 0 41 -46 41 -64 0 -12 7 -34 15 -50 9 -16 13 -36 11 -43 -5 -11
21 -33 39 -33 9 0 -5 62 -17 77 -5 7 -7 17 -4 22 9 14 47 9 42 -5 -2 -6 2 -20
9 -31 11 -16 10 -27 -6 -73 -10 -30 -18 -64 -18 -75 1 -17 2 -17 6 -2 2 9 8
17 13 17 5 0 12 9 15 21 5 15 10 17 20 9 9 -8 15 -6 20 7 5 10 9 21 9 25 1 4
10 13 20 21 12 9 15 16 8 21 -6 3 -13 2 -17 -4 -3 -5 -11 -10 -17 -10 -6 0 -8
3 -5 7 4 3 1 13 -6 22 -21 26 -70 212 -59 223 20 20 47 4 52 -32 4 -27 10 -35
25 -35 25 0 45 18 45 40 0 10 5 13 12 9 8 -5 9 3 5 29 -4 29 -3 35 9 30 18 -7
12 -111 -10 -185 -8 -26 -11 -50 -6 -53 4 -3 4 -21 -1 -41 -6 -19 -9 -43 -7
-52 5 -24 30 33 57 133 26 93 42 118 30 48 -11 -68 -11 -73 6 -73 11 0 14 -11
13 -42 -4 -71 1 -138 10 -138 5 0 9 14 9 32 0 18 5 34 11 36 7 2 12 9 12 17 0
7 7 18 15 25 19 16 19 1 0 -24 -21 -27 -20 -53 0 -36 13 10 15 9 15 -9 0 -11
5 -21 10 -21 6 0 10 -7 10 -16 0 -24 52 -104 68 -104 13 0 17 16 4 22 -4 2
-21 20 -36 41 -21 27 -24 37 -13 37 8 0 20 -13 27 -30 7 -16 17 -30 22 -30 5
0 8 3 6 8 -18 36 -28 65 -38 112 -7 30 -19 75 -26 99 -17 50 -11 87 9 61 7 -8
29 -26 49 -40 20 -13 34 -28 32 -32 -8 -13 8 -108 18 -108 6 0 8 20 4 51 l-6
51 23 -19 c13 -10 49 -37 80 -61 l56 -42 3 -122 c2 -91 6 -122 17 -126 10 -3
11 1 5 19 -4 13 -7 72 -6 131 l1 108 -47 32 c-26 18 -62 46 -80 63 -19 16 -64
51 -100 76 -74 50 -81 66 -62 136 13 43 7 70 -9 44 -6 -10 -10 -9 -15 4 -3 9
-4 21 0 26 3 5 -1 9 -9 9 -8 0 -20 7 -27 15 -7 9 -19 14 -27 11 -7 -3 -13 1
-13 9 0 8 -4 15 -10 15 -5 0 -10 -4 -10 -10 0 -5 -7 -10 -15 -10 -8 0 -15 -7
-15 -15 0 -18 -23 -11 -67 22 -35 25 -45 13 -17 -18 18 -20 10 -43 -12 -35 -8
3 -14 -1 -14 -8 0 -10 -11 -11 -47 -6 -27 5 -49 4 -51 -1 -8 -22 -41 -8 -47
20 -3 16 -13 35 -21 42 -8 6 -14 19 -14 29 0 10 -7 21 -16 24 -14 5 -16 1 -10
-26 6 -29 5 -31 -8 -13 -13 18 -14 18 -22 -6 -8 -25 -7 -63 2 -112 5 -26 4
-28 -13 -19 -10 6 -28 20 -40 32 -18 16 -23 17 -23 6 0 -8 8 -20 18 -26 15
-10 15 -10 -4 -5 -13 3 -26 -1 -34 -10 -7 -8 -16 -13 -20 -10 -5 3 -21 -17
-36 -45 -37 -69 -44 -54 -8 18 16 32 28 66 26 74 -2 9 -18 19 -38 23 -23 4
-38 14 -43 28 -10 26 -49 63 -57 54 -3 -3 3 -33 15 -66 12 -34 21 -67 21 -74
-1 -16 -40 31 -40 48 0 7 -7 16 -16 19 -22 8 -21 9 -28 -16 -6 -22 -7 -22 -21
7 -7 17 -14 24 -14 17 -2 -22 -18 -5 -41 45 l-23 48 -13 -30 c-7 -16 -13 -36
-14 -42 0 -7 -5 -13 -11 -13 -6 0 -8 9 -4 20 7 23 -4 26 -25 8 -12 -11 -12
-10 0 6 13 16 12 20 -4 32 -17 12 -23 10 -53 -16 -18 -17 -39 -30 -46 -30 -7
0 8 17 31 38 36 31 40 38 23 38 -12 0 -35 -18 -55 -42z m863 -114 c0 -10 -3
-8 -9 5 -12 27 -12 43 0 25 5 -8 9 -22 9 -30z m225 -306 c9 -22 8 -26 -6 -22
-13 5 -20 38 -8 38 4 0 11 -7 14 -16z"/>
<path d="M4360 2382 c0 -23 38 -64 51 -56 6 4 2 14 -10 25 -12 11 -21 26 -21
34 0 8 -4 15 -10 15 -5 0 -10 -8 -10 -18z"/>
<path d="M4011 2367 c-1 -22 26 -34 42 -18 8 8 6 11 -10 11 -12 0 -24 6 -26
13 -3 7 -6 5 -6 -6z"/>
<path d="M1385 2160 c-3 -5 -3 -15 0 -21 4 -6 -1 -16 -11 -24 -11 -7 -17 -15
-14 -17 3 -3 20 -15 38 -27 39 -27 58 -18 23 11 -19 15 -24 28 -23 54 3 34 -2
42 -13 24z"/>
<path d="M2760 2090 c-199 -11 -385 -45 -605 -112 -55 -16 -106 -32 -114 -34
-29 -9 -3 -13 30 -5 19 4 59 14 89 21 30 7 60 16 66 21 6 5 42 15 80 23 38 8
82 19 97 25 31 12 38 -4 10 -24 -14 -11 -15 -17 -6 -38 9 -18 26 -29 65 -41
29 -8 117 -49 195 -91 78 -41 149 -75 159 -75 20 0 -45 37 -210 120 -65 33
-112 62 -105 64 65 21 92 27 126 31 37 3 62 8 113 21 63 16 135 11 182 -12 26
-13 54 -24 63 -24 8 0 50 -18 92 -40 43 -22 84 -40 91 -40 7 0 35 -11 62 -25
55 -28 64 -30 54 -14 -5 9 -146 79 -159 79 -20 0 -258 127 -266 142 -10 18 -7
19 28 18 58 -3 73 -1 73 10 0 6 -17 9 -37 8 -21 -1 -99 -5 -173 -8z m53 -32
c3 -10 1 -16 -4 -12 -5 3 -9 0 -9 -7 0 -7 -8 -5 -20 6 -20 18 -21 18 -27 -3
-5 -22 -6 -22 -31 5 -17 18 -27 23 -30 15 -2 -7 1 -19 7 -26 6 -7 8 -16 4 -19
-3 -4 -12 2 -20 13 -8 11 -21 20 -29 20 -17 0 -17 -4 -3 -33 10 -21 10 -21 -5
-3 -9 11 -16 23 -16 27 0 4 -9 7 -20 6 -23 -2 -23 -2 -9 -30 l12 -22 -23 20
-23 20 7 -20 c5 -14 4 -17 -3 -10 -6 6 -8 20 -5 32 5 18 17 23 67 31 34 6 88
10 119 9 46 0 57 -4 61 -19z m-300 -22 c4 -10 0 -12 -15 -8 -18 4 -20 2 -15
-18 l6 -22 -20 20 c-25 27 -24 30 9 35 15 2 28 5 28 6 1 0 4 -5 7 -13z m7 -61
c0 -5 -5 -3 -10 5 -5 8 -10 20 -10 25 0 6 5 3 10 -5 5 -8 10 -19 10 -25z"/>
<path d="M5160 2035 c27 -32 68 -130 58 -136 -14 -9 -1 -29 20 -29 32 0 20 53
-28 119 -24 33 -49 61 -53 61 -5 0 -4 -7 3 -15z"/>
<path d="M1545 2021 c-3 -5 0 -13 5 -16 6 -4 16 -19 21 -33 9 -23 12 -25 22
-12 7 9 19 14 28 12 9 -1 19 4 23 13 4 11 -3 19 -21 26 -19 7 -29 7 -31 0 -5
-16 -22 -13 -22 4 0 17 -16 20 -25 6z"/>
<path d="M5127 1921 c-16 -15 -50 -34 -76 -41 l-46 -12 1 -53 c1 -29 4 -58 8
-64 4 -6 1 -11 -8 -11 -9 0 -16 -5 -16 -11 0 -8 13 -9 38 -4 47 8 62 22 34 32
-11 4 -21 10 -21 13 0 3 -3 13 -7 23 -11 29 12 67 46 73 16 4 30 10 30 15 0 5
7 9 15 9 8 0 14 -4 13 -9 -2 -5 1 -11 5 -12 10 -5 37 68 29 76 -9 9 -16 5 -45
-24z"/>
<path d="M727 1911 c-3 -12 3 -27 15 -38 19 -17 19 -17 12 12 -9 40 -20 51
-27 26z"/>
<path d="M665 1910 c3 -5 13 -10 21 -10 8 0 12 5 9 10 -3 6 -13 10 -21 10 -8
0 -12 -4 -9 -10z"/>
<path d="M760 1901 c0 -6 5 -13 10 -16 6 -3 10 1 10 9 0 9 -4 16 -10 16 -5 0
-10 -4 -10 -9z"/>
<path d="M2075 1894 c11 -8 57 -36 103 -60 45 -25 82 -48 82 -51 0 -3 -7 -3
-15 0 -8 4 -17 2 -21 -4 -4 -7 -12 -5 -23 5 -15 14 -19 14 -42 -1 -23 -16 -23
-16 -10 0 20 26 9 29 -19 5 -14 -11 -19 -17 -12 -13 7 4 12 0 12 -9 0 -10 6
-13 15 -10 8 4 15 1 15 -5 0 -8 5 -9 19 -1 14 7 21 6 25 -3 3 -8 8 -7 16 6 12
19 30 23 30 6 0 -5 -5 -7 -11 -3 -7 4 -10 -1 -7 -12 3 -20 54 -29 64 -13 3 5
-4 9 -15 9 -15 0 -21 6 -21 21 0 26 4 24 100 -35 41 -25 80 -46 86 -46 7 0 15
-4 18 -9 4 -5 -10 -8 -31 -6 -38 3 -67 -10 -58 -26 3 -4 12 -6 20 -2 8 3 15 0
15 -6 0 -7 6 -11 13 -10 11 2 34 -3 90 -18 9 -2 17 0 17 6 0 6 -6 11 -14 11
-8 0 -16 7 -20 15 -3 8 -4 15 -3 15 2 0 61 -30 133 -66 71 -37 150 -77 175
-90 47 -24 82 -32 64 -15 -6 5 -117 63 -247 130 -130 66 -269 141 -309 167
-40 25 -100 60 -133 77 -34 16 -65 36 -69 44 -4 7 -18 13 -30 13 -22 -1 -22
-1 -2 -16z"/>
<path d="M1621 1882 c13 -10 56 -36 94 -57 112 -62 170 -112 172 -149 0 -17 6
-83 12 -146 6 -63 11 -122 11 -130 1 -13 2 -13 10 1 5 9 6 30 1 50 -12 45 -22
249 -13 249 7 0 147 -91 169 -110 7 -5 15 -10 19 -10 3 0 26 -13 51 -30 24
-16 46 -30 48 -30 2 0 24 -14 47 -30 121 -86 280 -191 284 -188 7 7 -269 198
-286 198 -4 0 -10 4 -12 8 -1 4 -39 30 -83 57 -44 28 -108 69 -141 92 -34 23
-77 49 -95 59 -19 9 -52 32 -74 50 -22 17 -67 47 -100 65 -33 18 -73 41 -90
51 -39 23 -55 23 -24 0z"/>
<path d="M1377 1873 c-12 -11 -8 -72 6 -106 8 -18 27 -47 42 -66 16 -18 30
-43 32 -55 5 -42 9 -51 23 -72 16 -23 60 -50 60 -37 0 4 5 1 10 -7 8 -12 13
-13 30 -2 11 7 20 8 20 3 0 -11 123 -144 297 -323 73 -75 133 -141 133 -147 0
-6 6 -11 13 -11 13 0 26 -20 43 -65 4 -11 7 -23 6 -27 -2 -10 63 -179 88 -228
31 -60 97 -128 152 -156 65 -33 168 -33 168 0 0 10 -12 10 -47 3 -66 -14 -137
17 -200 87 -44 48 -103 155 -103 185 0 14 -36 125 -49 151 -17 32 -12 140 7
183 22 47 56 87 75 87 21 0 130 -119 199 -216 36 -51 80 -128 99 -173 31 -73
49 -99 49 -70 0 28 -91 194 -156 284 -102 141 -174 209 -248 235 -102 35 -125
13 -129 -124 l-2 -79 -148 154 c-168 175 -257 279 -294 347 -43 79 -70 136
-77 164 -13 55 -75 106 -99 81z m120 -173 c22 -51 18 -68 -11 -47 -18 13 -35
97 -20 97 5 0 19 -23 31 -50z m38 -80 c-3 -5 -10 -10 -16 -10 -5 0 -9 5 -9 10
0 6 7 10 16 10 8 0 12 -4 9 -10z m572 -362 c-3 -8 -6 -5 -6 6 -1 11 2 17 5 13
3 -3 4 -12 1 -19z"/>
<path d="M1913 1867 c-23 -10 -31 -27 -14 -27 5 0 11 -13 15 -30 7 -38 27 -40
25 -2 -1 15 1 34 5 43 10 22 -4 29 -31 16z"/>
<path d="M5131 1723 c13 -15 10 -16 -27 -11 -58 8 -71 -2 -54 -41 17 -42 58
-75 76 -60 7 6 11 16 8 23 -3 8 11 18 36 26 46 15 54 40 13 39 -16 0 -22 -3
-15 -6 6 -2 12 -9 12 -14 0 -6 -4 -8 -9 -5 -5 4 -11 1 -13 -5 -3 -8 -16 -10
-41 -5 -46 9 -48 26 -3 26 22 0 36 6 40 16 8 20 -1 34 -21 34 -13 0 -13 -2 -2
-17z m-21 -88 c0 -8 -2 -15 -4 -15 -2 0 -6 7 -10 15 -3 8 -1 15 4 15 6 0 10
-7 10 -15z"/>
<path d="M2255 1660 c-14 -15 -15 -20 -4 -20 8 0 20 9 27 20 7 11 8 20 4 20
-5 0 -17 -9 -27 -20z"/>
<path d="M2493 1585 c2 -5 18 -9 35 -7 25 3 31 0 26 -12 -4 -11 5 -16 39 -21
38 -6 44 -10 39 -27 -4 -17 -1 -19 17 -13 15 5 21 2 21 -10 0 -9 4 -13 10 -10
15 9 -41 75 -70 82 -14 3 -28 11 -32 17 -9 14 -89 15 -85 1z"/>
<path d="M4591 1585 c-1 -11 -4 -31 -8 -44 -4 -17 -3 -22 5 -17 15 9 10 -40
-7 -72 -15 -28 -21 -28 -14 1 l6 22 -22 -24 c-22 -25 -28 -51 -12 -51 5 0 12
6 14 13 4 9 7 9 15 -1 7 -10 14 -6 32 16 18 22 29 27 51 24 17 -3 29 0 29 7 0
6 -15 11 -34 11 l-34 0 -9 68 c-6 37 -11 58 -12 47z"/>
<path d="M4150 1539 c0 -5 5 -7 10 -4 6 3 10 8 10 11 0 2 -4 4 -10 4 -5 0 -10
-5 -10 -11z"/>
<path d="M4411 1529 c-1 -9 -10 -24 -21 -34 -20 -19 -27 -45 -11 -45 12 0 43
68 37 83 -2 7 -5 6 -5 -4z"/>
<path d="M4420 1470 c0 -18 5 -30 13 -30 9 0 12 10 9 30 -2 17 -8 30 -13 30
-5 0 -9 -13 -9 -30z"/>
<path d="M4710 1471 c-14 -4 -20 -10 -14 -13 13 -9 54 1 54 13 0 10 -4 10 -40
0z"/>
<path d="M1910 1335 c0 -8 2 -15 4 -15 2 0 6 7 10 15 3 8 1 15 -4 15 -6 0 -10
-7 -10 -15z"/>
<path d="M2222 1118 c-7 -7 -12 -9 -12 -5 0 4 -9 3 -20 -3 -26 -14 -43 -83
-35 -139 8 -57 69 -198 98 -229 50 -54 147 -71 182 -32 69 76 -16 330 -132
395 -51 28 -64 30 -81 13z m8 -43 c-6 -15 -6 -27 0 -30 6 -3 5 -16 -1 -33 -22
-58 19 -165 79 -205 50 -33 66 -34 86 -5 55 79 -45 264 -131 243 -26 -6 -28
-2 -13 26 27 50 101 -5 150 -112 35 -76 46 -137 36 -192 -6 -31 -9 -33 -51
-36 -42 -2 -50 2 -105 51 -43 38 -63 64 -71 91 -5 21 -14 35 -19 32 -11 -7
-23 71 -17 111 3 24 4 22 6 -11 1 -22 6 -47 12 -55 7 -11 8 -2 4 30 -7 46 7
98 28 112 17 11 17 11 7 -17z m-49 -12 c-12 -20 -14 -14 -5 12 4 9 9 14 11 11
3 -2 0 -13 -6 -23z m157 -71 c17 -15 36 -40 41 -56 15 -37 14 -98 -2 -119 -11
-17 -15 -17 -44 -2 -43 21 -67 54 -83 110 -25 88 23 125 88 67z"/>
<path d="M2550 790 c0 -4 33 -19 74 -34 77 -27 103 -33 73 -15 -32 19 -147 57
-147 49z"/>
</g>
</svg>
