<?xml version="1.0" standalone="no"?>
<!DOCTYPE svg PUBLIC "-//W3C//DTD SVG 20010904//EN"
 "http://www.w3.org/TR/2001/REC-SVG-20010904/DTD/svg10.dtd">
<svg version="1.0" xmlns="http://www.w3.org/2000/svg"
 width="776.000000pt" height="680.000000pt" viewBox="0 0 776.000000 680.000000"
 preserveAspectRatio="xMidYMid meet">

<g transform="translate(0.000000,680.000000) scale(0.100000,-0.100000)"
fill="#000000" stroke="#fff" stroke-width="1">
<path d="M6400 5990 c-14 -11 -30 -20 -37 -20 -6 0 -32 -9 -57 -20 -33 -14
-46 -25 -46 -39 0 -28 109 -131 138 -131 38 0 24 -19 -32 -45 -30 -14 -58 -30
-61 -35 -10 -15 -22 -12 -45 12 l-20 22 30 31 30 31 -55 57 c-59 61 -70 65
-101 42 -10 -8 -25 -15 -32 -15 -20 0 -72 -42 -72 -58 0 -7 -13 -19 -30 -25
-16 -6 -30 -14 -30 -17 0 -3 20 -18 45 -34 51 -32 76 -62 68 -82 -3 -9 2 -14
15 -14 11 0 23 8 26 17 6 14 9 12 22 -11 17 -34 12 -42 -55 -85 -56 -36 -72
-38 -96 -11 -39 43 -61 14 -25 -33 16 -20 17 -27 7 -35 -7 -6 -23 -9 -36 -5
-19 5 -21 3 -16 -18 5 -19 0 -28 -24 -42 -36 -21 -56 -53 -41 -62 6 -4 8 -11
5 -16 -4 -5 3 -21 14 -35 25 -32 28 -96 5 -119 -9 -9 -37 -26 -63 -39 -25 -13
-55 -33 -65 -45 -22 -24 -41 -28 -32 -6 3 8 2 15 -3 15 -9 0 -106 -68 -166
-116 -22 -18 -68 -48 -101 -68 -34 -20 -98 -64 -142 -98 -97 -76 -239 -181
-307 -226 -27 -19 -62 -45 -77 -58 -15 -13 -31 -24 -34 -24 -4 0 -21 -10 -38
-23 -17 -13 -55 -37 -83 -53 -29 -16 -53 -32 -53 -36 0 -5 -5 -8 -11 -8 -10 0
-53 -27 -269 -169 -30 -20 -60 -40 -66 -46 -6 -5 -41 -28 -77 -50 -40 -24 -65
-45 -62 -53 3 -7 0 -10 -5 -7 -9 6 -77 -38 -158 -101 -62 -48 -211 -144 -223
-144 -8 0 -27 7 -43 15 -16 9 -36 13 -43 10 -8 -2 -24 2 -36 9 -111 73 -454
84 -651 22 -27 -9 -60 -16 -74 -16 -22 0 -151 -55 -162 -69 -3 -4 -34 -27 -70
-53 -36 -25 -83 -66 -105 -90 -101 -113 -115 -129 -115 -135 0 -3 -14 -22 -30
-42 -46 -55 -47 -55 -70 -101 -28 -55 -59 -153 -67 -210 -11 -82 -65 -168
-136 -216 -23 -16 -62 -44 -85 -62 -131 -98 -425 -182 -640 -183 -125 -1 -198
-15 -317 -60 -86 -33 -107 -42 -230 -99 -44 -20 -98 -45 -120 -56 -46 -21
-253 -191 -326 -267 -55 -58 -77 -94 -114 -192 -13 -36 -34 -78 -45 -92 -27
-35 -44 -98 -31 -121 8 -14 11 -14 12 -2 1 8 3 24 4 36 1 11 7 29 13 40 9 15
11 7 12 -44 0 -58 -2 -63 -19 -57 -14 4 -21 0 -26 -14 -7 -24 4 -91 15 -91 5
0 6 -8 3 -18 -2 -10 3 -47 12 -83 9 -35 24 -104 35 -154 10 -49 24 -112 30
-140 16 -67 19 -85 30 -189 l10 -90 52 -45 c28 -25 72 -65 97 -89 25 -24 84
-69 131 -99 47 -31 87 -60 88 -65 2 -4 10 -8 18 -8 8 0 14 -4 14 -9 0 -5 21
-23 48 -40 26 -17 84 -57 129 -89 83 -59 144 -92 248 -137 96 -42 258 -94 261
-83 0 2 8 -3 16 -10 14 -11 194 -42 243 -41 11 0 81 0 155 0 156 -1 270 10
321 31 19 9 73 40 120 71 87 57 226 137 237 137 11 0 166 95 198 121 61 50
137 137 181 206 26 40 50 73 55 73 4 0 8 5 8 10 0 10 49 90 61 100 3 3 14 20
23 38 22 43 118 180 216 309 22 29 40 55 40 59 0 4 15 25 33 48 18 23 41 55
51 71 46 74 204 185 264 185 9 0 76 15 147 34 111 28 253 85 355 140 14 8 66
35 115 61 142 74 249 171 351 320 77 112 93 154 90 231 -4 94 -62 264 -146
434 -37 74 -71 146 -75 160 -9 29 -60 107 -74 112 -9 3 -111 174 -111 186 0 4
14 34 32 67 41 78 99 146 194 225 85 72 130 114 135 128 2 5 16 15 30 23 43
22 289 186 323 214 6 6 19 15 28 20 25 16 192 133 205 145 7 5 15 10 17 10 7
0 92 64 112 85 9 9 29 22 45 30 16 9 29 19 29 23 0 4 26 23 57 42 31 19 71 49
89 66 49 46 100 83 199 146 84 53 250 174 285 208 66 63 170 100 184 65 9 -24
35 -18 42 10 8 34 68 78 95 70 28 -9 20 -24 -31 -60 -52 -37 -59 -51 -29 -60
18 -6 27 -1 43 21 11 16 32 40 46 54 16 15 25 36 25 53 -1 22 2 26 18 21 13
-4 17 -2 13 5 -11 17 10 13 24 -4 19 -23 27 -18 28 15 0 21 -6 33 -20 41 -19
10 -15 14 47 55 37 24 72 44 79 44 19 0 49 -37 41 -49 -3 -6 1 -14 10 -17 9
-4 38 8 70 30 30 20 61 36 68 36 7 0 35 -20 62 -44 50 -43 50 -44 31 -65 -27
-30 -73 -27 -120 9 -44 33 -69 27 -43 -11 23 -33 68 -59 101 -59 32 0 107 43
125 73 11 16 8 23 -17 48 -39 38 -128 99 -145 99 -7 0 -22 -6 -32 -14 -17 -12
-20 -11 -32 11 -15 29 -5 48 28 58 11 4 19 16 19 28 0 18 2 19 10 7 7 -11 10
-11 10 -2 0 7 8 12 18 11 23 -3 53 11 46 22 -7 11 47 12 64 0 10 -6 5 -14 -22
-30 -32 -20 -34 -24 -24 -46 6 -14 15 -22 19 -19 5 3 9 1 9 -5 0 -32 91 -91
140 -91 33 0 158 93 138 103 -36 19 -67 42 -117 90 -34 31 -68 57 -76 57 -20
0 -19 17 2 29 10 5 16 11 13 13 -3 2 -25 14 -50 28 -49 26 -96 59 -191 132
-34 26 -65 45 -70 42 -5 -3 -17 0 -26 6 -16 11 -16 11 2 5 34 -11 -65 77 -136
120 -52 32 -100 55 -114 55 -9 0 -31 -11 -50 -25 -29 -22 -36 -24 -59 -14 -34
16 -33 23 7 48 17 11 37 28 44 39 10 17 6 23 -32 50 -59 41 -76 45 -105 22z
m72 -47 c10 -9 18 -20 18 -24 0 -10 -95 -79 -109 -79 -15 0 -71 54 -71 69 0 6
5 11 11 11 6 0 22 9 36 20 31 24 90 26 115 3z m-287 -85 c14 -6 25 -14 25 -18
0 -4 11 -18 25 -32 l25 -25 -28 -24 c-16 -13 -43 -32 -60 -41 -31 -17 -34 -16
-70 4 -43 25 -72 48 -72 58 0 4 23 17 51 28 32 14 53 29 56 42 6 23 13 24 48
8z m437 -45 c46 -18 112 -58 138 -83 9 -9 34 -29 55 -45 22 -16 63 -49 91 -72
28 -24 54 -43 57 -43 3 0 36 -22 72 -49 l66 -50 -30 -15 c-43 -23 -66 -20
-104 14 -19 17 -40 30 -46 30 -6 0 -17 -13 -26 -30 -10 -20 -23 -30 -38 -30
-12 0 -32 -3 -45 -6 -21 -6 -22 -5 -11 20 7 14 16 26 21 26 4 0 8 4 8 9 0 15
-39 20 -50 6 -16 -20 -53 -27 -46 -9 11 29 -28 13 -64 -26 -20 -22 -42 -40
-48 -40 -6 0 -13 -4 -17 -10 -9 -14 52 9 66 26 13 16 59 19 59 5 0 -5 -14 -19
-30 -31 -17 -12 -28 -26 -25 -31 4 -5 0 -6 -8 -3 -8 3 -21 -3 -28 -13 -8 -11
-32 -30 -54 -43 -22 -13 -42 -26 -45 -29 -14 -16 -99 -81 -105 -81 -11 0 -106
-71 -145 -108 -19 -18 -51 -42 -70 -52 -48 -26 -88 -60 -72 -60 7 0 10 -5 7
-10 -4 -6 -15 -8 -26 -5 -17 6 -19 3 -14 -18 4 -14 2 -28 -5 -32 -7 -4 -11 -1
-9 6 1 8 1 20 0 27 -1 16 -101 -58 -101 -75 0 -7 -6 -13 -14 -13 -8 0 -16 -5
-18 -12 -2 -6 -11 -12 -19 -13 -21 -4 -125 -69 -199 -125 -36 -28 -89 -66
-118 -86 -30 -20 -61 -43 -71 -52 -9 -10 -44 -37 -76 -62 -33 -25 -64 -49 -70
-53 -42 -33 -229 -162 -315 -218 -58 -37 -110 -72 -117 -78 -7 -6 -14 -11 -17
-11 -8 0 -201 -134 -204 -142 -6 -13 -62 -40 -62 -29 0 5 7 11 15 15 8 3 15
12 15 19 0 8 12 17 28 20 15 4 41 20 59 37 18 16 35 30 39 30 4 0 17 8 28 19
12 10 53 40 91 66 39 26 72 51 75 55 3 3 21 17 40 30 40 28 60 46 60 55 0 7
-92 -54 -101 -67 -3 -5 -23 -18 -44 -29 -36 -19 -100 -66 -133 -96 -7 -7 -16
-13 -20 -13 -4 0 -25 -16 -47 -35 -22 -19 -43 -35 -46 -35 -4 0 -25 -15 -47
-32 -42 -35 -74 -55 -162 -100 -30 -16 -64 -37 -75 -47 -11 -9 -37 -28 -57
-42 -21 -13 -38 -27 -38 -31 0 -4 -19 -16 -42 -28 -69 -33 -128 -71 -128 -81
0 -5 26 5 58 22 80 45 192 118 192 127 0 4 20 16 45 27 25 11 45 23 45 27 0 5
5 8 10 8 6 0 28 11 50 25 22 14 40 21 40 17 0 -11 -41 -47 -110 -97 -30 -21
-88 -67 -128 -101 -41 -34 -92 -75 -115 -91 -23 -15 -53 -39 -68 -53 -14 -14
-35 -31 -47 -39 -11 -8 -19 -18 -16 -23 3 -4 -2 -8 -10 -8 -8 0 -31 -13 -49
-30 -19 -16 -40 -30 -46 -30 -6 0 -11 -4 -11 -10 0 -5 -15 -10 -34 -10 -19 0
-38 5 -41 10 -3 6 -15 10 -25 10 -11 0 -31 5 -44 12 -25 11 -26 11 -6 25 31
22 24 34 -9 15 -29 -16 -30 -16 -87 22 l-58 39 23 15 c32 22 98 76 86 71 -36
-15 -65 -33 -65 -41 0 -4 -6 -8 -14 -8 -8 0 -16 -5 -18 -11 -5 -16 -48 -1 -48
16 0 8 12 25 28 39 91 83 110 98 134 103 15 3 30 14 33 24 3 10 15 21 26 24
10 4 19 10 19 15 0 5 42 37 93 71 50 34 109 76 129 93 85 70 114 92 141 105
15 8 27 17 27 21 0 4 18 15 40 25 22 10 40 22 40 27 0 4 6 8 13 8 8 0 22 9 32
20 10 11 22 20 27 20 8 0 152 103 176 127 7 7 19 13 26 13 7 0 21 9 33 19 11
10 35 27 54 36 19 10 50 31 70 46 20 16 40 29 45 29 10 0 88 53 92 63 2 4 8 7
13 7 6 0 20 9 32 21 12 11 49 38 82 59 69 45 132 94 190 146 22 19 52 42 68
50 15 8 27 18 27 23 0 5 14 14 30 21 17 7 30 16 30 21 0 5 8 9 19 9 10 0 39
16 64 35 25 19 50 35 55 35 5 0 15 6 21 14 7 8 20 12 31 9 15 -4 72 26 90 48
9 11 52 31 56 26 3 -2 -23 -24 -57 -48 -33 -24 -66 -49 -73 -56 -7 -6 -26 -20
-42 -30 -16 -10 -81 -56 -144 -103 -63 -47 -117 -85 -120 -85 -12 -1 -130 -83
-206 -142 -45 -35 -86 -63 -91 -63 -5 0 -20 -11 -32 -24 -13 -13 -34 -27 -47
-30 -13 -4 -24 -11 -24 -16 0 -6 -5 -10 -10 -10 -6 0 -23 -12 -38 -26 -15 -14
-39 -32 -54 -40 -16 -8 -28 -18 -28 -23 0 -5 -11 -12 -25 -15 -14 -4 -25 -11
-25 -16 0 -6 -5 -10 -10 -10 -19 0 -217 -138 -290 -203 -14 -12 -41 -33 -60
-46 -19 -14 -73 -54 -120 -91 -93 -72 -140 -104 -182 -121 -31 -12 -38 -39
-10 -39 10 0 31 11 47 25 39 32 210 160 275 205 28 19 59 42 70 51 10 8 31 24
45 35 15 10 32 24 39 29 6 6 34 26 61 45 45 31 124 88 150 108 6 4 17 11 25
15 35 18 62 36 89 60 16 14 48 37 70 52 23 14 41 30 41 35 0 6 6 10 14 10 12
0 40 19 116 80 14 11 31 20 38 20 6 0 12 5 12 10 0 6 6 10 13 10 8 0 22 9 32
20 10 11 39 32 64 47 25 14 48 29 51 32 12 14 131 101 138 101 4 0 30 18 57
40 81 64 98 76 130 93 17 8 39 24 49 36 11 12 24 21 31 21 7 0 20 9 30 20 10
11 24 20 30 20 7 0 18 7 25 16 8 8 46 38 87 66 69 48 89 66 61 55 -56 -21 -57
-20 -47 18 12 44 5 71 -29 107 l-26 28 23 23 c12 13 32 30 45 36 21 12 28 9
66 -18 23 -17 46 -28 51 -25 17 10 9 29 -22 55 -44 36 -30 58 15 24 37 -28 66
-33 66 -11 0 8 -11 23 -25 34 -14 11 -25 22 -25 26 0 3 20 27 45 53 38 42 47
46 62 36 10 -7 35 -22 57 -34 l38 -20 15 20 c9 14 25 21 45 21 l31 0 -42 36
c-22 20 -41 42 -41 48 0 12 116 76 136 76 7 0 26 -13 42 -29 18 -16 35 -24 40
-19 10 10 26 -7 36 -39 5 -14 3 -23 -4 -23 -6 0 -20 -9 -32 -20 -12 -11 -29
-20 -37 -20 -20 -1 -91 -66 -91 -83 0 -6 12 0 25 16 13 15 46 37 72 48 26 11
50 23 53 27 17 22 50 31 75 20 19 -9 28 -9 37 0 9 9 9 12 -1 12 -6 0 -21 20
-32 45 -11 25 -24 45 -29 45 -6 0 -10 12 -10 28 0 16 -8 32 -20 40 -25 15 -26
29 -2 35 9 3 18 5 19 6 2 0 22 -7 45 -16z m-167 -13 c3 -5 2 -10 -4 -10 -5 0
-13 5 -16 10 -3 6 -2 10 4 10 5 0 13 -4 16 -10z m61 -35 c10 -8 14 -15 7 -15
-19 0 -43 11 -43 21 0 13 14 11 36 -6z m-288 -57 c18 -18 15 -36 -8 -48 -15
-8 -23 -7 -38 7 -17 17 -17 19 3 35 24 21 28 21 43 6z m46 -94 c9 -8 16 -17
16 -19 0 -8 -41 9 -51 21 -17 20 15 19 35 -2z m859 -215 c-13 -13 -43 -1 -43
16 0 18 44 24 48 6 2 -7 0 -17 -5 -22z m-211 15 c17 -9 26 -19 22 -23 -5 -4
-33 -25 -62 -45 l-53 -38 -50 20 c-85 36 -132 -2 -69 -55 17 -13 30 -29 30
-34 0 -11 -115 -89 -131 -89 -7 0 -22 9 -33 19 -32 29 -60 31 -64 4 -3 -22
-22 -33 -22 -13 0 6 -7 10 -15 10 -26 0 -17 18 30 57 25 20 45 43 45 51 0 7 4
10 10 7 9 -6 123 64 145 89 21 23 73 47 80 36 4 -7 11 -8 18 -1 7 5 26 11 42
14 17 2 34 5 38 6 4 0 22 -6 39 -15z m326 -93 l52 -50 -32 -24 c-25 -19 -41
-23 -65 -20 -35 6 -127 79 -117 94 8 13 76 48 95 49 9 0 39 -22 67 -49z m-308
25 c0 -3 -4 -8 -10 -11 -5 -3 -10 -1 -10 4 0 6 5 11 10 11 6 0 10 -2 10 -4z
m-154 -73 c-8 -8 -36 5 -36 17 0 7 6 7 21 0 11 -7 18 -14 15 -17z m104 -51 c0
-3 -7 -14 -17 -24 -19 -21 -41 -25 -24 -4 9 11 8 17 -8 28 -12 8 -18 17 -15
21 7 6 64 -12 64 -21z m-451 -105 c6 -18 23 -40 38 -49 l26 -16 -41 -27 c-39
-26 -42 -26 -99 -14 -75 16 -84 14 -150 -28 -54 -34 -78 -38 -53 -8 7 8 16 15
21 15 5 0 59 38 120 85 62 46 116 82 120 80 4 -3 12 -20 18 -38z m-144 -154
c-30 -16 -119 -82 -165 -123 -14 -12 -43 -31 -65 -42 -22 -11 -48 -27 -57 -35
-9 -8 -22 -13 -29 -11 -7 2 10 22 36 44 27 21 69 59 94 84 54 53 142 100 186
100 l30 -1 -30 -16z m-205 -53 c0 -5 -5 -10 -11 -10 -5 0 -7 5 -4 10 3 6 8 10
11 10 2 0 4 -4 4 -10z m-50 -30 c0 -5 -4 -10 -10 -10 -5 0 -10 5 -10 10 0 6 5
10 10 10 6 0 10 -4 10 -10z m-175 -155 c-16 -13 -32 -22 -35 -19 -7 7 39 44
54 44 6 -1 -2 -12 -19 -25z m-146 -111 c-20 -22 -224 -173 -284 -212 -11 -7
-33 -21 -50 -32 -16 -11 -34 -20 -39 -20 -19 0 112 105 244 195 47 31 96 66
109 76 35 28 48 23 20 -7z m-429 -298 c0 -9 -91 -79 -96 -73 -3 3 16 21 42 41
46 36 54 40 54 32z m-490 -395 c0 -11 -50 -44 -57 -38 -5 6 37 47 49 47 4 0 8
-4 8 -9z m-1240 -35 c83 -19 159 -43 175 -56 7 -6 19 -8 28 -4 19 7 57 -12 57
-29 -1 -7 -25 -32 -55 -57 -30 -24 -58 -52 -61 -62 -3 -10 -9 -18 -14 -18 -5
0 -14 -10 -21 -21 -9 -18 -8 -24 5 -31 26 -15 19 -33 -24 -63 -59 -41 -49 -50
13 -11 l52 33 30 -18 c43 -26 66 -42 81 -56 7 -7 22 -13 33 -13 11 0 23 -4 26
-10 3 -5 31 -17 62 -26 l55 -16 -42 -21 c-23 -12 -59 -38 -81 -58 -21 -20 -55
-44 -74 -55 -19 -10 -35 -25 -35 -32 0 -7 -4 -11 -9 -7 -5 3 -12 1 -15 -4 -4
-5 -2 -12 3 -15 14 -9 41 4 41 20 0 8 6 11 15 8 8 -4 15 -1 15 5 0 6 6 11 13
11 6 1 30 16 52 36 25 21 32 32 20 28 -16 -5 -17 -4 -5 4 8 6 18 8 22 6 9 -6
68 27 68 38 0 4 29 22 64 39 35 17 74 41 88 54 24 22 73 48 117 60 19 6 23 4
18 -9 -5 -11 -1 -16 12 -16 25 0 120 -93 159 -155 17 -27 52 -95 78 -150 45
-96 47 -104 50 -200 1 -55 -2 -122 -7 -150 -20 -108 -141 -295 -250 -385 -47
-39 -319 -189 -319 -175 0 2 -44 -12 -97 -32 -54 -19 -119 -41 -144 -48 -50
-14 -189 -58 -254 -80 -22 -8 -60 -19 -85 -25 -107 -28 -191 -80 -292 -182
-106 -107 -131 -149 -178 -303 -33 -108 -40 -122 -86 -186 -19 -26 -34 -50
-34 -54 0 -17 -110 -156 -169 -213 -194 -187 -384 -286 -641 -334 -104 -19
-302 6 -456 57 -102 34 -240 93 -365 155 -173 87 -198 101 -292 166 -43 30
-83 51 -88 48 -5 -3 -8 -1 -7 4 2 5 -45 55 -104 111 -107 102 -204 226 -249
317 -21 43 -24 62 -23 154 1 89 6 119 32 193 38 112 65 150 177 253 159 147
244 198 465 283 47 18 105 41 130 51 55 22 196 45 267 43 86 -2 198 -24 182
-35 -14 -9 47 -1 64 9 13 7 8 23 -8 23 -8 0 -15 4 -15 9 0 7 86 33 156 46 10
2 19 4 19 5 0 1 13 4 30 6 30 5 46 12 145 58 50 24 203 129 252 173 37 33 88
123 94 166 17 125 77 270 140 341 19 21 34 41 34 45 0 4 9 17 20 29 11 11 28
36 39 54 10 18 23 32 29 31 5 -1 9 5 8 15 0 9 4 17 9 17 9 0 71 41 145 96 44
33 104 62 135 66 16 2 34 8 39 13 6 6 20 10 33 10 12 0 42 4 65 10 24 5 61 14
83 19 65 15 283 13 355 -3z m853 -238 c-12 -11 -34 -22 -49 -24 -31 -3 -24 7
21 30 42 22 53 20 28 -6z m-63 -48 c0 -5 -5 -10 -11 -10 -5 0 -7 5 -4 10 3 6
8 10 11 10 2 0 4 -4 4 -10z m39 -46 l-24 -26 38 4 c42 5 46 -1 17 -27 -19 -17
-21 -17 -40 0 -11 10 -20 23 -20 28 0 14 42 58 48 52 3 -3 -5 -17 -19 -31z
m272 -592 c12 -26 27 -53 33 -60 11 -15 31 -68 76 -197 29 -87 39 -209 19
-249 -23 -43 -140 -212 -171 -246 -38 -42 -142 -130 -152 -130 -4 0 -22 -11
-39 -24 -35 -26 -166 -95 -262 -138 -102 -46 -228 -85 -335 -103 -41 -6 -80
-19 -128 -41 -29 -13 -56 -24 -60 -24 -4 0 -29 -19 -55 -42 -47 -42 -100 -111
-212 -273 -30 -44 -73 -105 -95 -135 -22 -30 -38 -61 -35 -68 2 -6 -2 -12 -9
-12 -7 0 -26 -23 -42 -51 -16 -28 -34 -60 -40 -70 -6 -11 -21 -30 -33 -43 -11
-12 -21 -25 -21 -29 0 -11 -62 -109 -106 -167 -62 -82 -148 -163 -217 -206
-34 -21 -64 -41 -67 -44 -3 -4 -32 -20 -65 -35 -92 -44 -275 -145 -320 -175
-50 -35 -173 -50 -406 -50 -205 0 -364 31 -514 100 -11 5 -42 16 -70 25 -76
25 -282 145 -301 176 -3 6 -14 7 -25 4 -14 -5 -17 -2 -13 8 4 11 -10 24 -43
43 -26 15 -61 40 -78 55 -16 15 -62 49 -102 76 -99 66 -223 180 -240 220 -7
18 -15 46 -18 61 -17 108 -18 113 -31 108 -17 -7 -17 -1 -2 23 9 15 9 29 0 58
-6 21 -18 79 -27 128 -10 50 -26 127 -36 172 -24 105 -24 105 11 50 16 -26 30
-52 30 -57 0 -4 4 -10 8 -12 5 -1 23 -25 41 -53 83 -124 356 -354 527 -446
212 -112 322 -163 454 -208 258 -89 437 -105 620 -56 158 43 275 93 345 147
71 55 116 87 148 103 20 11 37 23 37 26 0 4 26 32 58 63 32 31 72 75 88 97 16
22 45 62 65 88 20 26 40 57 43 69 4 12 13 28 19 34 20 21 47 87 87 209 21 64
44 127 51 140 18 36 118 143 170 184 48 38 88 65 97 65 5 0 65 18 133 41 68
22 129 42 134 43 42 10 166 50 190 61 17 7 46 16 65 20 54 11 284 105 330 135
8 6 26 14 40 20 48 19 134 82 190 140 121 123 210 297 210 411 0 50 11 100 20
94 5 -3 18 -26 31 -53z m-4261 -1222 c0 -5 -2 -10 -4 -10 -3 0 -8 5 -11 10 -3
6 -1 10 4 10 6 0 11 -4 11 -10z"/>
<path d="M6328 5467 c-20 -17 -69 -54 -108 -82 -40 -27 -84 -60 -99 -72 -14
-13 -29 -23 -32 -23 -15 0 -79 -59 -70 -65 14 -8 40 7 107 61 31 26 63 47 71
48 8 1 47 31 85 67 39 35 77 68 84 72 15 8 19 27 7 27 -5 0 -24 -15 -45 -33z"/>
<path d="M6555 5370 c-3 -6 1 -7 9 -4 18 7 21 14 7 14 -6 0 -13 -4 -16 -10z"/>
<path d="M6285 5189 c-11 -16 -1 -19 13 -3 7 8 8 14 3 14 -5 0 -13 -5 -16 -11z"/>
<path d="M6245 5160 c-3 -5 -2 -10 4 -10 5 0 13 5 16 10 3 6 2 10 -4 10 -5 0
-13 -4 -16 -10z"/>
<path d="M6158 5104 c-40 -25 -46 -34 -25 -34 13 1 72 49 66 54 -2 2 -21 -7
-41 -20z"/>
<path d="M6079 5040 c-31 -25 -12 -26 21 0 14 11 20 20 14 20 -7 0 -22 -9 -35
-20z"/>
<path d="M5986 4965 c-11 -8 -16 -15 -10 -15 5 0 18 7 28 15 11 8 16 15 10 15
-5 0 -18 -7 -28 -15z"/>
<path d="M5938 4927 c-9 -7 -26 -19 -38 -27 -50 -34 -70 -52 -70 -63 1 -8 5
-6 13 3 7 8 38 32 70 53 31 20 57 39 57 42 0 8 -14 5 -32 -8z"/>
<path d="M5797 4819 c-9 -6 -15 -14 -12 -20 4 -5 13 -2 22 6 19 20 14 27 -10
14z"/>
<path d="M5640 4810 c0 -6 -15 -17 -32 -25 -18 -8 -25 -14 -16 -15 9 0 30 11
45 25 15 13 22 25 16 25 -7 0 -13 -5 -13 -10z"/>
<path d="M5525 4790 c-3 -5 -1 -10 4 -10 6 0 11 5 11 10 0 6 -2 10 -4 10 -3 0
-8 -4 -11 -10z"/>
<path d="M5755 4780 c-3 -6 1 -7 9 -4 18 7 21 14 7 14 -6 0 -13 -4 -16 -10z"/>
<path d="M5525 4750 c-3 -5 1 -10 9 -10 8 0 18 5 21 10 3 6 -1 10 -9 10 -8 0
-18 -4 -21 -10z"/>
<path d="M5695 4742 c-16 -11 -37 -27 -45 -37 -14 -17 -14 -17 5 -7 24 13 82
61 75 62 -3 0 -18 -8 -35 -18z"/>
<path d="M5394 4705 c-24 -18 -7 -19 26 0 16 9 19 14 9 15 -8 0 -24 -7 -35
-15z"/>
<path d="M5430 4690 c-14 -11 -20 -20 -14 -20 7 0 22 9 35 20 31 25 12 26 -21
0z"/>
<path d="M5595 4660 c-16 -11 -25 -20 -20 -20 10 0 64 39 55 40 -3 0 -18 -9
-35 -20z"/>
<path d="M5526 4614 c-24 -24 -19 -30 7 -8 12 10 24 20 26 21 2 2 -1 3 -7 3
-6 0 -18 -7 -26 -16z"/>
<path d="M5220 4603 c-13 -15 -12 -16 4 -10 10 4 20 7 22 7 2 0 4 5 4 10 0 15
-13 12 -30 -7z"/>
<path d="M5464 4575 c-10 -8 -14 -14 -9 -14 6 0 19 6 29 14 11 8 15 15 10 15
-6 0 -19 -7 -30 -15z"/>
<path d="M5161 4559 c-18 -11 -31 -23 -28 -26 3 -3 12 0 19 6 7 7 22 18 33 26
30 21 15 18 -24 -6z"/>
<path d="M5334 4489 c-104 -83 -134 -111 -88 -83 48 30 195 153 183 154 -4 0
-46 -32 -95 -71z"/>
<path d="M5085 4508 c-24 -14 -87 -74 -65 -62 8 4 34 23 58 41 43 32 46 44 7
21z"/>
<path d="M4974 4419 c-10 -12 -29 -25 -41 -30 -13 -5 -23 -13 -23 -19 0 -6 12
-3 28 8 28 21 69 62 60 62 -3 0 -13 -10 -24 -21z"/>
<path d="M5181 4364 c-13 -13 -19 -24 -14 -24 12 0 48 38 42 44 -2 3 -15 -6
-28 -20z"/>
<path d="M4690 4199 c-19 -17 -68 -55 -107 -85 -40 -30 -73 -57 -73 -60 0 -6
12 1 55 30 65 46 152 119 159 134 7 16 6 16 -34 -19z"/>
<path d="M4445 4012 c-28 -20 -67 -48 -87 -62 -21 -14 -38 -29 -38 -33 0 -9 5
-6 68 36 23 16 42 32 42 36 0 4 16 16 35 27 19 10 35 22 35 26 0 12 0 11 -55
-30z"/>
<path d="M4514 4005 c-18 -14 -18 -14 4 -8 12 3 22 9 22 14 0 12 -3 11 -26 -6z"/>
<path d="M4216 3845 c-11 -8 -15 -15 -10 -15 6 0 19 7 30 15 10 8 15 14 9 14
-5 0 -19 -6 -29 -14z"/>
<path d="M4036 3815 c-11 -8 -29 -13 -40 -9 -17 4 -18 3 -6 -5 8 -5 12 -12 10
-14 -3 -2 -16 -12 -30 -21 l-25 -18 25 7 c14 4 28 12 32 18 4 8 15 7 35 -1 26
-11 26 -11 9 3 -18 14 -18 15 5 34 28 23 14 28 -15 6z"/>
<path d="M4165 3810 c-3 -6 1 -7 9 -4 18 7 21 14 7 14 -6 0 -13 -4 -16 -10z"/>
<path d="M4088 3757 c-20 -20 -132 -87 -144 -87 -7 0 -17 -7 -24 -15 -7 -8 -9
-15 -5 -15 12 0 120 63 123 72 2 4 9 8 16 8 7 0 23 11 36 25 24 25 22 36 -2
12z"/>
<path d="M3895 3715 c-16 -14 -25 -25 -18 -25 7 0 25 11 40 25 36 32 17 32
-22 0z"/>
<path d="M4160 3663 c-19 -13 -37 -30 -39 -36 -3 -9 31 12 78 50 2 2 2 5 0 6
-2 2 -20 -7 -39 -20z"/>
<path d="M3534 3462 c-34 -21 -74 -48 -90 -60 -16 -13 -65 -48 -109 -80 -44
-31 -81 -60 -83 -64 -2 -4 -10 -8 -17 -8 -7 0 -15 -4 -17 -8 -1 -5 -42 -35
-89 -68 -48 -32 -140 -98 -205 -145 -238 -171 -264 -186 -326 -192 -66 -6
-238 -62 -254 -83 -6 -8 -14 -14 -18 -14 -4 0 -26 -16 -49 -35 -23 -19 -77
-64 -119 -98 -42 -35 -102 -92 -133 -127 -67 -78 -65 -75 -90 -123 -27 -52
-53 -72 -383 -301 -85 -59 -243 -174 -256 -187 -5 -5 -7 -11 -3 -15 6 -6 129
82 135 98 2 4 9 8 16 8 6 0 21 7 31 15 28 22 189 138 207 150 70 45 177 122
197 139 l23 21 -6 -45 c-9 -60 -23 -85 -55 -101 -47 -23 -191 -120 -191 -129
0 -4 -10 -10 -23 -14 -13 -3 -44 -21 -70 -41 -25 -19 -49 -35 -52 -35 -7 0
-72 -47 -94 -68 -16 -15 -110 -62 -125 -62 -5 0 -18 -8 -28 -17 -17 -15 -20
-15 -35 -1 -14 15 -12 18 21 40 36 23 50 46 21 34 -8 -3 -22 -9 -30 -12 -11
-5 -15 1 -15 19 0 14 -4 28 -9 31 -11 7 -21 -18 -21 -55 0 -16 -2 -29 -4 -29
-5 0 -51 20 -149 64 -49 22 -57 29 -47 41 10 12 9 16 -3 21 -17 6 -107 -52
-107 -69 0 -5 10 -18 22 -28 28 -24 156 -109 164 -109 4 0 24 -15 44 -32 64
-55 250 -174 250 -160 0 4 4 2 8 -4 4 -6 32 -27 62 -47 30 -20 109 -77 174
-127 66 -50 126 -90 134 -88 8 2 20 12 26 23 6 10 17 25 24 33 18 20 15 40 -9
52 -28 15 -52 -5 -44 -37 3 -13 3 -23 1 -23 -2 0 -23 16 -47 35 -23 20 -65 52
-93 71 -28 19 -76 53 -106 75 -30 22 -64 45 -75 50 -11 5 -36 19 -56 32 -20
12 -76 46 -125 76 -49 30 -91 58 -94 62 -3 3 -36 25 -75 49 -88 53 -135 88
-135 101 0 14 19 11 36 -6 8 -8 33 -19 54 -25 43 -11 150 -67 180 -93 11 -9
37 -25 58 -36 22 -11 42 -27 45 -35 4 -9 13 -13 21 -10 14 6 129 -65 176 -108
45 -42 147 -115 184 -133 34 -16 66 -15 66 3 0 4 -50 41 -110 81 -61 41 -112
77 -114 80 -3 4 25 29 60 56 36 28 77 60 92 73 15 12 39 28 55 35 15 6 27 15
27 19 0 4 19 18 43 32 23 14 38 26 32 26 -5 1 2 8 18 16 15 8 27 19 27 24 0 6
6 10 13 10 7 0 30 12 50 26 l39 26 56 -21 c31 -11 66 -21 77 -22 181 -6 300
18 402 80 50 30 229 160 339 245 149 116 248 267 249 381 0 41 -6 68 -18 85
-9 13 -17 29 -17 35 0 7 30 35 68 63 132 101 197 148 215 155 9 3 17 11 17 17
0 6 -5 8 -12 4 -7 -4 -8 -3 -4 4 4 6 13 9 21 6 13 -5 44 17 164 114 18 15 48
35 65 44 17 9 45 29 61 43 17 15 42 34 58 43 31 18 34 27 12 36 -9 3 -29 -7
-48 -22 -17 -16 -50 -39 -71 -52 -73 -44 -187 -140 -180 -152 4 -7 3 -8 -5 -4
-6 4 -23 -2 -37 -13 -15 -12 -31 -21 -36 -21 -9 0 -21 -8 -57 -40 -9 -8 -35
-27 -57 -43 -22 -15 -50 -35 -60 -45 -11 -9 -29 -22 -40 -28 -10 -6 -20 -21
-22 -33 -2 -15 -7 -19 -15 -14 -7 5 -33 -2 -66 -19 -30 -15 -51 -28 -47 -28 5
0 3 -6 -3 -13 -13 -17 -5 -27 24 -27 61 0 71 -84 23 -192 -18 -40 -37 -78 -43
-84 -5 -6 -28 -33 -49 -60 -45 -56 -158 -150 -272 -227 -44 -29 -97 -65 -119
-81 -62 -43 -177 -96 -210 -96 -27 -1 -256 9 -296 13 -20 2 -13 27 7 27 7 0
18 9 24 20 6 11 17 20 25 20 8 0 29 13 47 28 18 15 65 49 103 76 106 72 190
142 187 156 -1 6 2 9 7 5 13 -7 43 10 103 57 26 21 50 38 55 38 5 0 23 14 41
30 18 17 36 30 38 30 8 0 185 132 216 162 15 14 24 29 20 33 -4 5 -1 5 6 1 13
-8 65 27 55 38 -12 12 -32 6 -27 -8 4 -10 -3 -16 -22 -18 -17 -2 -33 -12 -39
-24 -6 -11 -15 -19 -21 -17 -7 2 -27 -11 -47 -29 -19 -18 -39 -33 -44 -33 -15
0 -83 -57 -78 -65 3 -4 -15 -15 -38 -24 -23 -9 -56 -28 -73 -43 -34 -31 -54
-45 -98 -71 -44 -25 -97 -78 -88 -87 4 -5 1 -5 -6 -1 -12 7 -32 -6 -106 -66
-19 -16 -38 -28 -42 -28 -5 0 -34 -20 -65 -43 -32 -23 -66 -49 -78 -57 -12 -8
-21 -20 -21 -27 0 -7 -6 -10 -13 -7 -7 2 -22 -4 -32 -16 -23 -26 -61 -26 -75
0 -12 22 -6 40 14 40 6 0 26 15 44 33 17 17 48 41 69 52 21 11 45 26 53 32 8
7 24 19 35 27 20 15 20 15 -2 16 -13 0 -23 -4 -23 -10 0 -5 -18 -19 -41 -30
-22 -12 -67 -42 -99 -67 -61 -47 -90 -51 -90 -14 0 21 4 26 53 62 15 12 26 24
23 26 -3 3 -12 -2 -21 -11 -9 -9 -28 -16 -41 -16 -50 0 -5 43 191 182 159 113
216 153 258 181 26 17 47 35 47 39 0 9 -79 -32 -104 -55 -12 -10 -36 -27 -53
-38 -18 -12 -33 -24 -33 -28 0 -4 -22 -20 -50 -35 -27 -15 -50 -31 -50 -37 0
-5 -5 -9 -10 -9 -6 0 -16 -5 -23 -10 -37 -33 -169 -121 -173 -117 -3 3 -2 21
1 41 9 46 37 75 140 146 28 19 116 82 198 142 81 59 147 102 147 95 0 -7 10 0
23 14 31 37 145 113 191 129 43 14 153 15 170 1 6 -5 30 -11 53 -14 33 -3 40
-1 36 10 -3 8 4 28 16 44 12 16 19 29 16 29 -8 0 -59 -33 -66 -42 -3 -5 -29
-1 -58 8 -28 8 -60 13 -69 10 -16 -5 -51 9 -42 17 3 2 32 21 65 43 33 21 90
61 126 89 37 27 122 89 190 137 68 47 135 96 149 107 14 11 30 24 35 29 6 4
35 23 65 41 30 19 57 36 60 40 6 7 97 75 163 121 26 18 47 35 47 37 0 5 -2 4
-66 -35z m-954 -670 c0 -5 -12 -14 -26 -21 -20 -9 -30 -9 -40 0 -8 6 -21 9
-29 5 -8 -3 -15 -1 -15 4 0 8 17 11 93 18 9 1 17 -2 17 -6z m-111 -67 c-14 -7
-30 -25 -37 -39 -6 -14 -17 -26 -23 -26 -7 0 -30 -15 -53 -33 -23 -19 -75 -57
-117 -85 -42 -28 -83 -57 -90 -64 -25 -23 -109 -78 -119 -78 -17 0 -11 11 28
59 41 51 63 71 143 130 30 22 63 48 74 56 11 9 36 24 55 33 19 9 37 18 40 21
15 17 69 39 95 40 l30 0 -26 -14z m-573 -677 c4 -6 -14 -29 -42 -54 -54 -48
-56 -58 -4 -19 43 32 65 32 87 -1 16 -26 16 -26 -21 -57 -21 -18 -53 -44 -71
-59 -18 -16 -38 -28 -44 -28 -7 0 -9 -4 -6 -10 3 -5 -3 -10 -14 -10 -11 0 -28
-11 -37 -25 -9 -14 -22 -25 -29 -25 -8 0 -20 -6 -27 -13 -7 -8 -33 -26 -56
-41 -24 -15 -63 -42 -88 -61 -54 -41 -63 -43 -93 -11 -13 14 -36 30 -52 36
-16 7 -29 14 -29 17 0 9 68 69 94 82 13 8 43 31 65 52 22 22 46 39 53 39 14 1
97 70 83 70 -4 0 -23 -11 -41 -25 -18 -14 -37 -25 -43 -25 -5 0 -25 -14 -43
-31 -18 -17 -46 -38 -63 -46 -16 -9 -51 -34 -76 -55 -45 -38 -48 -39 -88 -28
-23 6 -41 14 -41 18 0 10 119 88 153 101 14 6 65 40 112 76 47 36 88 65 91 65
6 0 70 47 98 72 10 9 48 32 85 52 l66 35 7 -40 c4 -22 10 -44 14 -51z"/>
<path d="M1831 2059 c-13 -11 -22 -22 -19 -24 3 -3 17 6 32 20 32 30 22 33
-13 4z"/>
<path d="M1703 1958 c-13 -6 -23 -15 -23 -20 0 -8 17 -1 50 22 20 13 1 12 -27
-2z"/>
<path d="M1709 1890 l-24 -21 33 16 c31 15 41 25 23 25 -5 0 -19 -9 -32 -20z"/>
<path d="M1628 1832 c-30 -18 -39 -39 -10 -23 28 16 58 40 47 40 -5 -1 -22 -8
-37 -17z"/>
<path d="M3550 3380 c-14 -11 -30 -20 -35 -20 -12 0 -116 -68 -130 -85 -5 -6
-28 -24 -50 -38 -83 -55 -171 -119 -187 -137 -9 -10 -41 -32 -70 -49 -67 -39
-93 -59 -86 -66 6 -6 93 49 147 93 19 15 66 49 105 76 39 26 73 52 74 57 2 5
9 9 15 9 6 0 42 24 81 54 39 30 89 64 111 76 43 24 75 50 60 50 -6 0 -21 -9
-35 -20z"/>
<path d="M3670 3368 c-25 -16 -52 -33 -60 -38 -8 -5 -12 -11 -9 -14 3 -3 30
11 60 31 65 43 63 42 58 47 -2 2 -24 -10 -49 -26z"/>
<path d="M3534 3265 c-40 -35 -26 -39 16 -4 19 15 30 29 24 29 -6 0 -24 -11
-40 -25z"/>
<path d="M3645 3232 c-16 -11 -36 -26 -44 -35 -7 -9 -33 -27 -57 -39 -24 -12
-52 -30 -61 -40 -15 -17 -15 -18 0 -18 10 0 17 5 17 11 0 5 16 17 35 25 20 8
52 30 72 49 21 19 45 38 55 41 10 3 18 10 18 15 0 12 0 12 -35 -9z"/>
<path d="M3333 3140 c-32 -19 -41 -30 -25 -30 8 1 70 50 62 50 -3 0 -20 -9
-37 -20z"/>
<path d="M3268 3102 c-1 -4 -25 -23 -53 -42 -64 -45 -92 -70 -77 -70 7 0 40
23 74 50 34 28 66 50 70 50 4 0 8 5 8 10 0 12 -17 13 -22 2z"/>
<path d="M3397 3060 c-19 -16 -40 -30 -46 -30 -6 0 -11 -4 -11 -10 0 -5 -35
-32 -77 -59 -43 -27 -83 -55 -90 -60 -7 -6 -17 -11 -22 -11 -5 0 -16 -9 -23
-19 -8 -11 -26 -25 -41 -32 -15 -7 -27 -16 -27 -21 0 -17 21 -7 74 37 31 25
58 45 61 45 6 0 118 71 125 79 3 4 35 28 73 54 37 27 67 50 67 53 0 14 -34 0
-63 -26z"/>
<path d="M3083 2968 c-13 -6 -23 -15 -23 -20 0 -7 31 8 59 29 10 7 -16 1 -36
-9z"/>
<path d="M3020 2915 c-7 -8 -8 -15 -2 -15 5 0 15 7 22 15 7 8 8 15 2 15 -5 0
-15 -7 -22 -15z"/>
<path d="M2964 2875 c-10 -8 -14 -14 -9 -14 6 0 19 6 29 14 11 8 15 15 10 15
-6 0 -19 -7 -30 -15z"/>
<path d="M3015 2799 c-16 -5 -38 -7 -50 -5 -11 2 -14 1 -7 -1 18 -7 15 -21 -8
-28 -11 -3 -20 -10 -20 -15 0 -5 -12 -16 -27 -24 -16 -8 -41 -27 -56 -41 -15
-15 -53 -40 -85 -56 -31 -17 -59 -33 -62 -37 -8 -10 -122 -97 -145 -110 -11
-6 -15 -12 -9 -12 19 0 74 22 74 30 0 4 15 17 33 29 37 24 125 86 149 106 63
52 191 120 207 110 7 -3 11 2 11 14 0 11 8 24 17 30 25 14 13 19 -22 10z"/>
<path d="M2750 2725 c-8 -9 -8 -15 -2 -15 12 0 26 19 19 26 -2 2 -10 -2 -17
-11z"/>
<path d="M2717 2703 c-4 -3 -7 -11 -7 -17 0 -6 5 -5 12 2 6 6 9 14 7 17 -3 3
-9 2 -12 -2z"/>
<path d="M2540 2629 c0 -5 5 -7 10 -4 6 3 10 8 10 11 0 2 -4 4 -10 4 -5 0 -10
-5 -10 -11z"/>
<path d="M2600 2615 c-7 -8 -18 -15 -24 -15 -7 0 -21 -8 -32 -19 -11 -10 -29
-21 -40 -25 -20 -7 -84 -59 -84 -70 0 -8 134 84 138 95 2 5 10 9 17 9 16 0 64
39 49 40 -6 0 -17 -7 -24 -15z"/>
<path d="M2390 2465 c-8 -9 -8 -15 -2 -15 12 0 26 19 19 26 -2 2 -10 -2 -17
-11z"/>
<path d="M2406 2380 c-53 -39 -99 -70 -102 -70 -2 0 -12 -8 -22 -17 -11 -10
-31 -27 -45 -37 -26 -18 -35 -36 -19 -36 4 0 26 18 50 40 23 22 65 52 93 67
29 16 68 43 88 61 20 19 43 37 51 42 8 5 12 11 9 14 -3 3 -49 -26 -103 -64z"/>
<path d="M2355 2430 c-3 -5 -1 -10 4 -10 6 0 11 5 11 10 0 6 -2 10 -4 10 -3 0
-8 -4 -11 -10z"/>
<path d="M2315 2400 c-3 -5 -2 -10 4 -10 5 0 13 5 16 10 3 6 2 10 -4 10 -5 0
-13 -4 -16 -10z"/>
<path d="M2270 2373 c-8 -3 -19 -12 -23 -19 -4 -8 -14 -14 -21 -14 -8 0 -19
-7 -26 -15 -21 -26 7 -18 56 15 53 37 58 50 14 33z"/>
<path d="M2130 2280 c-8 -5 -10 -10 -5 -10 6 0 17 5 25 10 8 5 11 10 5 10 -5
0 -17 -5 -25 -10z"/>
<path d="M2065 2225 c-22 -19 -35 -35 -29 -35 5 0 25 16 44 35 43 45 36 45
-15 0z"/>
<path d="M5803 5696 c-45 -23 -89 -48 -96 -55 -17 -14 -11 -51 9 -51 7 0 25
-17 39 -37 14 -21 25 -33 25 -28 0 6 5 2 11 -7 13 -23 28 -16 121 54 69 51 81
56 104 48 32 -12 34 -12 34 0 0 13 -51 59 -66 60 -5 0 -23 14 -39 30 -16 17
-36 30 -44 30 -9 0 -53 -20 -98 -44z m119 -21 c28 -24 29 -45 4 -71 -21 -20
-91 -64 -103 -64 -20 0 -83 61 -83 80 0 11 16 25 43 37 113 51 103 50 139 18z"/>
<path d="M6643 5009 c-57 -37 -81 -69 -52 -69 6 0 8 -7 5 -16 -4 -11 2 -22 16
-33 13 -8 25 -13 26 -11 2 3 10 -7 18 -22 8 -16 21 -28 28 -28 8 0 16 -5 18
-11 3 -8 16 -10 41 -5 40 8 51 26 15 26 -13 0 -32 7 -43 16 -57 43 -95 79 -95
91 0 19 56 51 102 58 41 7 128 -20 128 -41 0 -15 -57 -64 -74 -64 -17 0 -41
-28 -32 -37 16 -17 107 51 132 99 18 36 14 41 -49 62 -93 31 -116 29 -184 -15z"/>
</g>
</svg>
