<?xml version="1.0" standalone="no"?>
<!DOCTYPE svg PUBLIC "-//W3C//DTD SVG 20010904//EN"
 "http://www.w3.org/TR/2001/REC-SVG-20010904/DTD/svg10.dtd">
<svg version="1.0" xmlns="http://www.w3.org/2000/svg"
 width="236.000000pt" height="221.000000pt" viewBox="0 0 236.000000 221.000000"
 preserveAspectRatio="xMidYMid meet">

<g transform="translate(0.000000,221.000000) scale(0.100000,-0.100000)"
fill="#000000" stroke="none">
<path d="M1785 2035 c-159 -47 -261 -95 -315 -147 -113 -110 -171 -190 -365
-500 -145 -230 -212 -324 -280 -388 -21 -19 -57 -61 -80 -93 l-42 -57 -7 41
c-5 28 -12 43 -25 46 -16 4 -18 10 -11 33 9 32 5 40 -22 40 -17 0 -18 2 -3 30
9 17 13 35 9 41 -6 11 -40 8 -76 -6 -14 -6 -11 5 12 54 17 34 30 66 30 71 0 6
-22 10 -50 10 l-50 0 27 55 c24 48 26 57 13 66 -15 10 -48 7 -84 -7 -16 -6
-15 -1 8 29 36 47 29 71 -18 65 l-33 -4 20 27 c30 41 17 63 -34 55 l-40 -6 23
30 c19 27 20 32 8 41 -8 5 -23 7 -32 5 -15 -3 -14 0 4 24 29 40 18 64 -26 57
l-34 -5 16 28 c14 24 14 30 2 45 -11 14 -24 16 -62 11 -41 -6 -49 -4 -60 14
-15 24 -50 26 -68 5 -23 -27 -5 -148 44 -300 131 -408 243 -720 299 -838 l62
-127 50 -16 c28 -9 94 -18 148 -21 l97 -6 0 -162 0 -162 68 -6 c148 -15 174
-8 134 36 -17 19 -16 19 13 13 40 -8 64 6 46 28 -11 13 -11 16 3 16 25 0 19
23 -13 51 l-29 26 14 73 c7 40 16 75 19 78 9 10 61 4 131 -13 l72 -19 1 -84
c2 -87 17 -232 26 -240 2 -3 24 0 47 6 24 5 58 11 76 11 19 1 48 9 65 18 l31
16 -29 23 c-23 18 -26 24 -12 24 19 0 23 26 5 33 -9 4 -8 6 2 6 35 2 40 23 13
58 -23 30 -25 40 -20 94 4 49 13 71 45 117 57 83 127 216 158 302 14 41 31 78
37 82 6 4 34 9 62 13 27 3 78 13 113 22 34 9 64 14 65 12 2 -2 20 -31 40 -65
43 -71 70 -99 92 -91 22 9 19 35 -8 71 -45 60 -43 65 26 68 74 4 81 20 22 48
-36 16 -37 19 -15 20 14 1 28 2 33 1 14 -2 77 28 77 37 0 24 -161 37 -270 22
-47 -7 -109 -14 -137 -17 -51 -5 -53 -4 -53 18 0 13 -3 48 -6 77 l-7 52 61 0
c34 0 83 5 111 11 45 9 53 8 90 -15 65 -42 96 -29 49 21 l-21 23 39 0 c53 0
84 10 84 26 0 15 -61 29 -85 20 -21 -8 -19 2 15 59 35 59 36 61 11 68 -20 5
-104 -48 -128 -80 -10 -13 -33 -17 -105 -19 -84 -2 -119 -8 -170 -29 -15 -6
-18 -2 -18 22 0 16 -6 51 -13 79 l-13 51 150 23 c83 13 178 26 211 30 150 17
246 82 217 146 -7 14 -10 30 -7 35 4 5 -3 9 -14 9 -14 0 -22 8 -26 28 -13 61
-33 74 -64 41 l-21 -23 0 26 c0 31 -26 61 -43 51 -7 -4 -18 -15 -25 -25 -13
-18 -14 -18 -28 -1 -7 10 -14 32 -14 50 0 31 1 32 26 18 31 -16 54 -10 54 15
0 9 -8 42 -18 72 -13 40 -15 59 -8 71 13 20 -6 38 -79 72 -77 36 -118 38 -210
10z m164 -25 c18 -5 45 -17 59 -26 l25 -16 -34 -27 c-19 -14 -43 -35 -55 -46
-12 -12 -43 -37 -70 -57 -27 -20 -60 -48 -73 -62 -14 -14 -27 -26 -30 -26 -4
0 -15 16 -25 35 -22 40 -44 50 -92 41 -45 -9 -60 -37 -45 -87 13 -42 35 -59
75 -59 19 0 24 -4 19 -16 -3 -8 -12 -13 -20 -10 -8 3 -24 -1 -36 -9 -28 -20
-36 -19 -30 3 2 10 -5 26 -16 36 -12 11 -21 25 -21 33 0 18 -29 17 -36 -2 -3
-8 -19 -21 -34 -29 -28 -13 -28 -13 -18 9 11 25 -4 65 -25 65 -19 0 -74 -37
-108 -72 -51 -55 -19 -8 45 66 129 148 157 166 351 232 106 36 140 40 194 24z
m99 -160 c-2 -5 -14 -1 -28 10 -21 16 -22 20 -10 35 12 15 15 14 27 -10 8 -14
13 -30 11 -35z m-78 -39 l9 -31 -31 16 c-29 15 -29 16 -12 35 20 22 22 22 34
-20z m-267 -32 c14 -20 12 -54 -3 -64 -16 -10 -38 7 -51 37 -10 25 -10 31 2
39 22 14 37 11 52 -12z m184 -27 c-4 -26 -21 -31 -41 -12 -11 11 22 52 36 44
4 -3 7 -18 5 -32z m71 -53 c-27 -36 -43 -24 -34 25 7 35 7 36 31 20 l24 -16
-21 -29z m-498 28 c0 -4 -44 -57 -95 -113 -16 -19 -47 -41 -68 -49 l-39 -16
23 41 c13 23 30 47 38 53 11 9 13 9 8 0 -4 -6 -4 -14 1 -17 5 -3 32 19 62 49
45 47 70 65 70 52z m-1250 -112 c12 -38 42 -107 66 -153 24 -46 44 -91 44
-100 0 -9 25 -66 55 -127 30 -60 79 -168 109 -238 72 -168 91 -194 152 -199
62 -5 80 6 134 79 25 33 80 98 123 143 73 79 95 109 181 243 21 33 40 56 43
53 8 -8 33 13 33 28 0 6 -5 4 -10 -4 -7 -11 -10 -12 -10 -2 0 8 28 42 62 75
34 34 54 51 45 37 -51 -74 -77 -116 -77 -127 0 -27 24 -23 56 8 44 43 44 32
-1 -17 -31 -35 -54 -89 -42 -100 11 -11 36 10 52 45 22 49 61 95 74 86 7 -4 9
-22 5 -46 -6 -37 -5 -39 18 -39 22 0 116 69 126 93 2 4 13 7 25 7 11 0 29 8
40 18 15 12 21 14 24 5 7 -20 37 -15 51 7 27 44 64 -16 77 -128 4 -34 11 -64
15 -67 4 -3 35 4 67 14 99 32 230 34 240 4 4 -12 -99 -32 -187 -36 l-55 -2 -3
-104 -3 -104 93 6 c51 4 114 9 140 13 42 6 46 5 43 -12 -2 -11 -4 -22 -4 -26
-1 -5 -19 -8 -41 -8 -22 0 -55 -6 -73 -13 -18 -8 -69 -20 -114 -27 l-82 -12
-30 -84 c-39 -107 -80 -189 -145 -287 -39 -60 -55 -77 -69 -73 -15 4 -17 1
-10 -12 4 -9 7 -47 6 -84 -2 -50 1 -67 12 -72 24 -9 17 -21 -12 -24 -41 -3
-47 -17 -17 -41 l27 -21 -31 0 c-37 0 -47 -12 -32 -41 13 -24 13 -24 -17 -33
-19 -6 -22 -2 -28 36 -3 24 -9 95 -13 158 l-7 115 -80 18 c-44 10 -103 20
-132 24 -49 5 -52 4 -66 -24 -20 -38 -40 -148 -32 -174 4 -11 1 -26 -5 -34 -9
-11 -10 -18 -1 -29 9 -11 5 -15 -19 -19 -34 -7 -38 -23 -12 -44 15 -13 13 -14
-23 -9 -22 3 -50 6 -62 6 -22 0 -23 2 -25 163 l-3 162 -110 6 c-158 10 -173
18 -229 126 -92 175 -349 939 -361 1068 -6 69 2 58 35 -50z m1600 68 c0 -14
-32 -18 -43 -6 -4 3 1 15 10 25 13 14 18 16 25 6 4 -7 8 -19 8 -25z m-1520 0
c0 -5 -9 -19 -20 -33 -17 -22 -19 -23 -25 -7 -10 25 1 47 25 47 11 0 20 -3 20
-7z m1706 -30 c-10 -10 -19 5 -10 18 6 11 8 11 12 0 2 -7 1 -15 -2 -18z m43
-37 c-2 -2 -14 -9 -26 -15 -19 -10 -22 -9 -17 4 4 8 15 15 27 15 11 0 18 -2
16 -4z m111 -6 c0 -5 -5 -10 -11 -10 -5 0 -7 5 -4 10 3 6 8 10 11 10 2 0 4 -4
4 -10z m-1846 -40 c-13 -21 -20 -26 -26 -17 -5 7 0 19 13 30 30 24 33 21 13
-13z m1396 20 c0 -5 -4 -10 -9 -10 -6 0 -13 5 -16 10 -3 6 1 10 9 10 9 0 16
-4 16 -10z m-75 -33 c-9 -14 -24 -28 -33 -31 -15 -5 -15 -5 1 8 9 7 17 17 17
23 0 11 22 34 28 29 2 -2 -4 -16 -13 -29z m605 13 c0 -11 -30 -21 -42 -14 -7
5 -4 12 7 20 18 13 35 10 35 -6z m-259 -81 c-13 -11 -26 -17 -29 -14 -7 6 29
34 43 34 6 0 -1 -9 -14 -20z m-56 -29 c4 -6 -6 -10 -22 -10 -22 0 -25 2 -13
10 19 12 27 12 35 0z m-1537 -36 c-19 -32 -23 -34 -29 -18 -9 26 3 40 48 53 1
1 -7 -15 -19 -35z m892 19 c-13 -23 -65 -82 -54 -63 9 17 58 80 62 80 1 0 -2
-8 -8 -17z m220 12 c0 -2 -10 -10 -22 -16 -21 -11 -22 -11 -9 4 13 16 31 23
31 12z m335 -4 c17 -7 15 -9 -13 -13 -31 -4 -40 1 -25 15 8 8 12 8 38 -2z
m-242 -27 c-11 -17 -19 -22 -21 -14 -3 7 3 19 14 27 26 19 27 17 7 -13z m92
-4 c-3 -5 -11 -10 -16 -10 -6 0 -7 5 -4 10 3 6 11 10 16 10 6 0 7 -4 4 -10z
m-240 -50 c-18 -18 -37 -29 -50 -28 -15 2 -19 -2 -18 -19 2 -14 -5 -27 -18
-34 -30 -16 -33 -6 -10 37 18 33 25 38 50 36 22 -3 30 2 34 17 3 12 13 21 23
21 15 0 13 -5 -11 -30z m-1004 -7 c-6 -10 -18 -27 -26 -38 -14 -17 -17 -18
-25 -5 -15 24 -12 30 23 45 41 18 40 18 28 -2z m899 7 c0 -5 -2 -10 -4 -10 -3
0 -8 5 -11 10 -3 6 -1 10 4 10 6 0 11 -4 11 -10z m-852 -127 c-11 -27 -22 -50
-24 -51 -1 -2 -10 10 -19 28 -9 18 -15 33 -13 34 68 50 82 47 56 -11z m1576
22 c-9 -14 -18 -25 -21 -25 -5 0 5 18 20 38 17 22 18 13 1 -13z m-1521 -140
c-28 -58 -39 -59 -49 -9 -5 27 -2 32 28 47 18 9 36 17 40 17 4 0 -4 -25 -19
-55z m39 -125 c-20 -47 -27 -50 -37 -13 -5 20 -2 31 11 40 35 25 44 16 26 -27z
m26 -92 c-6 -18 -13 -27 -15 -21 -4 11 13 53 22 53 2 0 -1 -15 -7 -32z m60
-53 c0 -15 -6 -25 -14 -25 -17 0 -17 5 -2 30 16 25 16 25 16 -5z m807 -725 c3
-5 1 -10 -4 -10 -6 0 -11 5 -11 10 0 6 2 10 4 10 3 0 8 -4 11 -10z"/>
<path d="M1657 1933 c-13 -12 -7 -33 8 -33 8 0 33 -16 55 -36 24 -22 46 -34
55 -30 24 9 18 22 -31 65 -44 39 -72 50 -87 34z"/>
<path d="M1661 1776 c-7 -9 -8 -17 -2 -20 13 -9 43 4 38 17 -5 17 -23 19 -36
3z"/>
</g>
</svg>
